<svg width="1477" height="500" viewBox="0 0 1477 500" xmlns="http://www.w3.org/2000/svg"><title>App Store</title><g fill="none" fill-rule="evenodd"><rect fill="#000" width="1477" height="500" rx="60"/><g fill="#FFF"><path d="M323.34 238.554c-.321-35.765 29.286-53.165 30.64-53.975-16.768-24.447-42.757-27.787-51.89-28.053-21.827-2.297-43 13.06-54.12 13.06-11.34 0-28.463-12.838-46.917-12.461-23.748.366-45.964 14.115-58.148 35.466-25.146 43.533-6.392 107.507 17.7 142.695 12.05 17.245 26.133 36.476 44.565 35.799 18.032-.733 24.768-11.497 46.53-11.497 21.56 0 27.886 11.497 46.684 11.053 19.353-.289 31.537-17.3 43.167-34.7 13.926-19.73 19.52-39.206 19.741-40.204-.444-.145-37.574-14.315-37.951-57.183M287.83 133.378c9.7-12.13 16.335-28.63 14.493-45.376-14.037.622-31.593 9.71-41.702 21.573-8.944 10.453-16.934 27.587-14.87 43.7 15.769 1.176 31.96-7.957 42.08-19.897"/></g><g fill="#FFF"><path d="M584.529 368.61h-25.201l-13.805-43.378H497.54l-13.15 43.378h-24.535l47.55-147.678h29.363l47.761 147.678zm-43.167-61.577l-12.484-38.55c-1.32-3.95-3.806-13.228-7.446-27.831h-.444c-1.465 6.28-3.806 15.557-7.013 27.83l-12.273 38.551h39.66zM706.573 314.058c0 18.11-4.916 32.425-14.759 42.934-8.811 9.354-19.764 14.026-32.825 14.026-14.104 0-24.246-5.027-30.405-15.114v55.873h-23.659V297.124c0-11.375-.3-23.037-.877-35h20.807l1.32 16.89h.445c7.89-12.729 19.863-19.087 35.931-19.087 12.562 0 23.049 4.96 31.438 14.892 8.378 9.954 12.584 23.026 12.584 39.239zm-24.103.865c0-10.364-2.33-18.909-7.013-25.634-5.116-7.002-11.985-10.52-20.596-10.52-5.837 0-11.141 1.954-15.88 5.815-4.749 3.873-7.856 8.944-9.31 15.236-.732 2.919-1.098 5.305-1.098 7.191v17.777c0 7.724 2.374 14.26 7.124 19.609 4.75 5.326 10.92 8 18.51 8 8.91 0 15.846-3.45 20.806-10.297 4.972-6.87 7.457-15.924 7.457-27.177zM829.05 314.058c0 18.11-4.916 32.425-14.76 42.934-8.821 9.354-19.763 14.026-32.835 14.026-14.093 0-24.236-5.027-30.406-15.114v55.873h-23.658V297.124c0-11.375-.3-23.037-.877-35h20.807l1.32 16.89h.444c7.879-12.729 19.853-19.087 35.932-19.087 12.55 0 23.048 4.96 31.449 14.892 8.367 9.954 12.584 23.026 12.584 39.239zm-24.114.865c0-10.364-2.341-18.909-7.024-25.634-5.105-7.002-11.963-10.52-20.574-10.52-5.837 0-11.141 1.954-15.902 5.815-4.738 3.873-7.845 8.944-9.3 15.236-.72 2.919-1.109 5.305-1.109 7.191v17.777c0 7.724 2.386 14.26 7.113 19.609 4.75 5.315 10.92 8 18.532 8 8.922 0 15.858-3.45 20.807-10.297 4.971-6.87 7.457-15.924 7.457-27.177zM965.986 327.196c0 12.562-4.384 22.782-13.128 30.672-9.61 8.612-23.026 12.928-40.226 12.928-15.891 0-28.63-3.063-38.24-9.2l5.47-19.718c10.376 6.136 21.773 9.21 34.179 9.21 8.922 0 15.857-2.02 20.807-6.026 4.971-4.028 7.468-9.388 7.468-16.09 0-6.004-2.064-11.042-6.148-15.136-4.095-4.073-10.864-7.89-20.363-11.375-25.856-9.643-38.795-23.758-38.795-42.301 0-12.118 4.572-22.039 13.683-29.795 9.122-7.746 21.217-11.619 36.265-11.619 13.438 0 24.635 2.342 33.524 7.013l-5.937 19.287c-8.367-4.528-17.81-6.791-28.375-6.791-8.345 0-14.903 2.053-19.575 6.136-3.94 3.651-5.948 8.101-5.948 13.383 0 5.826 2.275 10.664 6.813 14.448 3.929 3.507 11.097 7.313 21.462 11.397 12.717 5.127 22.05 11.097 28.042 17.955 6.025 6.858 9.022 15.413 9.022 25.622M1044.408 279.88h-26.078v51.7c0 13.15 4.594 19.708 13.804 19.708 4.228 0 7.735-.355 10.51-1.099l.654 17.966c-4.66 1.742-10.797 2.619-18.388 2.619-9.354 0-16.645-2.863-21.927-8.556-5.26-5.704-7.89-15.258-7.89-28.707v-53.676h-15.525V262.08h15.525v-19.498l23.237-7.013v26.51h26.078v17.8M1161.835 314.49c0 16.368-4.672 29.807-14.026 40.316-9.777 10.808-22.782 16.212-38.995 16.212-15.647 0-28.086-5.182-37.363-15.547-9.277-10.364-13.916-23.436-13.916-39.205 0-16.501 4.805-30.017 14.348-40.526 9.566-10.509 22.46-15.78 38.673-15.78 15.636 0 28.175 5.205 37.685 15.558 9.078 10.065 13.594 23.037 13.594 38.972zm-24.524.544c0-9.754-2.108-18.121-6.336-25.123-4.96-8.456-12.074-12.673-21.262-12.673-9.466 0-16.756 4.217-21.695 12.673-4.25 7.002-6.347 15.513-6.347 25.567 0 9.765 2.097 18.155 6.347 25.124 5.116 8.466 12.251 12.694 21.506 12.694 9.033 0 16.124-4.327 21.262-12.894 4.339-7.169 6.525-15.591 6.525-25.368zM1238.77 282.93c-2.341-.432-4.85-.643-7.457-.643-8.323 0-14.759 3.118-19.287 9.421-3.939 5.549-5.903 12.562-5.903 21.03v55.872h-23.659V295.66c0-12.262-.233-23.459-.688-33.524h20.607l.866 20.374h.655c2.507-7.002 6.436-12.65 11.829-16.867 5.282-3.818 10.964-5.715 17.1-5.715 2.186 0 4.162.166 5.915.433l.022 22.57M1344.58 310.33c0 4.238-.278 7.811-.866 10.73h-70.965c.255 10.52 3.706 18.576 10.287 24.125 5.98 4.949 13.727 7.434 23.214 7.434 10.51 0 20.097-1.664 28.72-5.038l3.706 16.424c-10.076 4.383-21.983 6.58-35.7 6.58-16.511 0-29.473-4.86-38.905-14.559-9.4-9.71-14.126-22.77-14.126-39.105 0-16.046 4.372-29.418 13.16-40.082 9.189-11.386 21.606-17.079 37.23-17.079 15.348 0 26.966 5.693 34.845 17.079 6.259 9.021 9.4 20.207 9.4 33.49zm-22.56-6.137c.166-7.025-1.388-13.062-4.595-18.188-4.095-6.592-10.398-9.877-18.843-9.877-7.745 0-14.037 3.207-18.831 9.644-3.94 5.115-6.28 11.274-7.002 18.398l49.27.023z"/></g><g fill="#FFF"><path d="M529.954 168.078H517.56l-6.78-21.317h-23.581l-6.47 21.317h-12.062l23.37-72.585h14.426l23.492 72.585zm-21.217-30.262l-6.137-18.953c-.643-1.942-1.83-6.459-3.662-13.672h-.222c-.754 3.119-1.83 7.646-3.45 13.672l-6.026 18.953h19.497zM588.39 115.745l-19.818 52.333h-11.308l-19.176-52.333h12.495l8.945 27.675c1.509 4.628 2.796 9.044 3.761 13.239h.322c.866-3.762 2.153-8.178 3.762-13.239l8.833-27.675h12.185M630.581 168.078l-.865-6.026h-.322c-3.551 4.85-8.722 7.213-15.292 7.213-9.366 0-16.046-6.57-16.046-15.402 0-12.917 11.197-19.598 30.583-19.598v-.965c0-6.891-3.662-10.342-10.875-10.342-5.17 0-9.698 1.298-13.671 3.884l-2.364-7.646c4.85-3.019 10.875-4.528 17.988-4.528 13.672 0 20.574 7.213 20.574 21.65v19.276c0 5.282.222 9.377.755 12.495l-10.465-.011zm-1.62-26.067c-12.928 0-19.386 3.13-19.386 10.553 0 5.493 3.34 8.179 7.967 8.179 5.926 0 11.419-4.517 11.419-10.653v-8.079zM666.191 107.122c-3.873 0-6.891-3.018-6.891-7.002s3.118-6.891 7.113-6.891c3.984 0 7.213 2.907 7.102 6.891 0 4.206-3.007 7.002-7.324 7.002zm-5.593 8.623h11.63v52.333h-11.63v-52.333zM692.89 91.73h11.63v76.348h-11.63V91.73zM753.946 168.078l-.877-6.026h-.31c-3.552 4.85-8.723 7.213-15.292 7.213-9.366 0-16.046-6.57-16.046-15.402 0-12.917 11.196-19.598 30.583-19.598v-.965c0-6.891-3.662-10.342-10.875-10.342-5.171 0-9.699 1.298-13.672 3.884l-2.374-7.657c4.849-3.019 10.875-4.528 17.988-4.528 13.671 0 20.584 7.213 20.584 21.65v19.276c0 5.282.222 9.376.733 12.495h-10.442zm-1.62-26.067c-12.928 0-19.387 3.13-19.387 10.553 0 5.493 3.34 8.179 7.968 8.179 5.926 0 11.418-4.517 11.418-10.653v-8.079zM810.762 169.265c-7.424 0-12.906-3.13-16.468-9.266h-.222l-.666 8.079h-9.898c.31-4.195.422-8.944.422-14.104V91.73h11.651v31.67h.211c3.451-5.814 9.044-8.722 16.69-8.722 12.606 0 21.44 10.775 21.44 26.489 0 16.246-9.81 28.097-23.16 28.097zm-2.364-45.453c-6.691 0-12.817 5.815-12.817 13.893v9.155c0 7.213 5.504 13.14 12.606 13.14 8.711 0 13.905-7.103 13.905-18.41-.011-10.554-5.404-17.778-13.694-17.778zM851.132 91.73h11.619v76.348h-11.619V91.73zM926.048 144.708h-34.911c.233 9.91 6.78 15.502 16.468 15.502 5.182 0 9.92-.866 14.115-2.475l1.809 8.079c-4.95 2.153-10.764 3.23-17.544 3.23-16.38 0-26.067-10.343-26.067-26.378 0-16.046 9.92-28.109 24.768-28.109 13.339 0 21.761 9.91 21.761 24.88.034 2.041-.066 3.872-.4 5.27zm-10.653-8.29c0-8.078-4.106-13.782-11.541-13.782-6.68 0-11.94 5.815-12.717 13.782h24.258zM996.535 169.265c-15.291 0-25.2-11.419-25.2-26.921 0-16.157 10.12-27.676 26.077-27.676 15.059 0 25.201 10.875 25.201 26.821 0 16.357-10.453 27.776-26.078 27.776zm.444-46.097c-8.4 0-13.782 7.857-13.782 18.843 0 10.775 5.493 18.632 13.671 18.632 8.179 0 13.672-8.4 13.672-18.854 0-10.653-5.382-18.62-13.56-18.62zM1085.133 168.078h-11.607v-30.05c0-9.256-3.562-13.894-10.564-13.894-6.892 0-11.641 5.926-11.641 12.817v31.127h-11.607v-37.375c0-4.627-.134-9.587-.444-14.97h10.231l.544 8.08h.333c3.096-5.594 9.465-9.156 16.578-9.156 10.964 0 18.177 8.4 18.177 22.072v31.349M1161.225 124.467h-12.795v25.412c0 6.47 2.253 9.698 6.77 9.698 2.041 0 3.783-.221 5.17-.543l.322 8.833c-2.264.865-5.293 1.298-9.033 1.298-9.177 0-14.637-5.06-14.637-18.31v-26.388h-7.623v-8.722h7.623v-9.588l11.408-3.451v13.028h12.795v8.733M1222.813 168.078h-11.641v-29.829c0-9.366-3.562-14.104-10.553-14.104-6.026 0-11.619 4.095-11.619 12.384v31.549h-11.64V91.73H1189v31.437h.222c3.651-5.703 8.944-8.51 15.725-8.51 11.085 0 17.866 8.61 17.866 22.293v31.127M1282.237 144.708h-34.9c.222 9.91 6.769 15.502 16.468 15.502 5.193 0 9.92-.866 14.093-2.475l1.82 8.079c-4.938 2.153-10.764 3.23-17.556 3.23-16.368 0-26.055-10.343-26.055-26.378 0-16.046 9.91-28.109 24.757-28.109 13.35 0 21.761 9.91 21.761 24.88.044 2.041-.067 3.872-.388 5.27zm-10.664-8.29c0-8.078-4.084-13.782-11.52-13.782-6.68 0-11.95 5.815-12.716 13.782h24.236z"/></g></g></svg>