<svg width="1477" height="500" viewBox="0 0 1477 500" xmlns="http://www.w3.org/2000/svg" xmlns:xlink="http://www.w3.org/1999/xlink"><title>Play Store</title><defs><linearGradient x1="58.92%" y1="9.59%" x2="90.81%" y2="60.85%" id="a"><stop stop-color="#FF177B" offset="0%"/><stop stop-color="#FFEC73" offset="100%"/></linearGradient><linearGradient x1="37.1%" y1="-44.04%" x2="0%" y2="101.06%" id="c"><stop stop-color="#064AA2" offset="0%"/><stop stop-color="#63FFD4" offset="100%"/></linearGradient><path id="b" d="M139 127L5 0C1.874.726 0 3.065 0 7v243c0 3.339 1.346 5.325 3 6l136-129z"/><path id="e" d="M5.534 127.785l77.452-42.547 34.21-18.956 56.324-30.337L136.022-.492.024 128.524c1.515.488 4.187.221 6.271-.808"/><linearGradient x1="78.65%" y1="50%" x2="2.5%" y2="100%" id="f"><stop stop-color="#FF4521" offset="0%"/><stop stop-color="#8A33DB" offset="100%"/></linearGradient><linearGradient x1="0%" y1="-24.19%" x2="64.22%" y2="100%" id="i"><stop stop-color="#00A3B5" offset="0%"/><stop stop-color="#D6FFA1" offset="100%"/></linearGradient><path id="h" d="M7.129 1.147C4.549-.235 1.986-.63-.087-.071l134.111 127.184 37.103-35.111-55.927-30.98-84.541-46.84L7.129 1.147z"/></defs><g fill="none" fill-rule="evenodd"><rect fill="#000" width="1477" height="500" rx="60"/><path d="M120.18 61.023S18.273 4.563 12.288 1.245C6.294-2.072.329-.06.329 6.873v243.513c0 5.19 4.262 7.44 9.47 4.562 5.199-2.879 110.38-61.162 110.38-61.162l21.433-11.869 34.494-19.1s47.453-26.298 53.766-29.785c6.304-3.496 5.696-8.287.379-11.047-5.328-2.749-54.145-29.983-54.145-29.983l-55.927-30.98z" fill="url(#a)" transform="translate(60 179)"/><g transform="translate(60 179)"><mask id="d" fill="white"><use xlink:href="#b"/></mask><use fill="url(#c)" xlink:href="#b"/><path d="M176 92l-56-31c-.196.451-102.062-56.113-108-59C5.963-1.76 0 .257 0 7v244c0 5.361 4.26 7.617 9 5 5.663-3.151 110.804-61.542 111-62l56-31c-.291.432 47.143-25.914 53-29 6.755-3.91 6.148-8.71 1-11-5.493-3.228-54.291-30.513-54-31" mask="url(#d)"/></g><g transform="translate(62.983 306.504)"><mask id="g" fill="white"><use xlink:href="#e"/></mask><path d="M117.017-66.504c-.197.451-102.062-56.113-108-59-6.038-3.76-12-1.743-12 5v244c0 5.362 4.26 7.617 9 5 5.663-3.151 110.803-61.542 111-62l56-31c-.291.432 47.142-25.914 53-29 6.755-3.91 6.148-8.71 1-11-5.494-3.228-54.291-30.512-54-31l-56-31z" fill="url(#f)" mask="url(#g)"/></g><g transform="translate(64.98 179)"><mask id="j" fill="white"><use xlink:href="#h"/></mask><use fill="url(#i)" xlink:href="#h"/><path d="M171.02 92l-56-31c-.195.451-102.061-56.113-108-59-6.036-3.76-12-1.743-12 5v244c0 5.361 4.261 7.617 9 5 5.664-3.151 110.805-61.542 111-62l56-31c-.29.432 47.144-25.914 53-29 6.756-3.91 6.149-8.71 1-11-5.493-3.228-54.29-30.513-54-31" mask="url(#j)"/></g><g fill="#FFF"><path d="M1011.615 348.87l-11.073 10.51c-2.56 1.415-5.105 3.058-7.644 4.224-7.69 3.513-15.512 4.396-22.463 4.396-7.396 0-18.99-.483-30.82-9.089C923.184 347.27 916 327.255 916 309.816 916 273.709 945.221 256 969.056 256c8.33 0 16.885 2.098 23.842 6.522 11.568 7.695 14.56 17.694 16.22 23.05l-54.429 22.118-17.825 1.394c5.77 29.606 25.681 46.825 47.685 46.825 10.99 0 19.149-3.61 26.634-7.33 0 0 1.503-.786.432.29zm-33.256-59.392c4.369-1.626 6.641-3.03 6.641-6.295 0-9.365-10.344-20.183-22.689-20.183-9.143 0-26.311 7.295-26.311 32.626 0 3.953.461 8.164.692 12.374l41.667-18.522z"/><path d="M898.026 347.603c0 9.026 1.6 10.43 9.184 11.14 3.953.467 7.892.674 11.79 1.142L910.465 365h-40.668c5.334-6.967 6.25-7.662 6.25-12.302v-5.184l-.089-138.129H858L875.288 201h33.003c-7.153 4.172-9.294 6.712-10.21 14.843l-.055 131.76"/><path d="M834.93 267.398c5.29 4.384 16.33 13.69 16.33 31.34 0 17.202-9.62 25.31-19.321 32.985-2.977 3.022-6.459 6.299-6.459 11.365 0 5.142 3.482 7.93 5.988 10.008l8.322 6.478c10.118 8.61 19.342 16.506 19.342 32.544 0 21.848-20.974 43.882-60.606 43.882C765.14 436 749 419.969 749 402.78c0-8.363 4.13-20.209 17.758-28.325 14.283-8.803 33.632-9.98 43.995-10.669-3.236-4.212-6.93-8.625-6.93-15.825 0-3.937 1.175-6.284 2.308-9.051-2.519.24-5.059.488-7.366.488-24.436 0-38.247-18.378-38.247-36.489 0-10.683 4.834-22.536 14.76-31.127C788.414 260.88 804.076 259 816.523 259H864l-14.76 8.398h-14.31zm-16.21 102.854c-1.906-.252-3.049-.252-5.348-.252-2.106 0-14.653.463-24.371 3.784C783.86 375.697 769 381.352 769 398.15c0 16.762 16.043 28.85 40.862 28.85 22.3 0 34.138-10.883 34.138-25.536 0-12.06-7.66-18.423-25.28-31.212zm6.515-44.737c5.303-5.345 5.765-12.729 5.765-16.922C831 291.94 821.163 266 802.094 266c-5.948 0-12.392 3.012-16.05 7.672-3.882 4.824-5.044 11.082-5.044 17.1 0 15.509 8.96 41.228 28.668 41.228 5.75 0 11.937-2.82 15.567-6.485zM691.337 368c-36.7 0-56.337-28.951-56.337-55.165C635 282.207 659.686 256 694.799 256 728.742 256 750 282.92 750 311.186 750 338.792 728.988 368 691.337 368zm28.701-18.935c5.603-7.507 6.962-16.876 6.962-26.01 0-20.658-9.721-60.055-38.453-60.055-7.642 0-15.338 3.024-20.885 7.959-9.049 8.209-10.662 18.524-10.662 28.644C657 322.777 668.314 361 696.394 361c9.062 0 18.31-4.442 23.644-11.935zM568.333 368C531.61 368 512 339.049 512 312.835 512 282.207 536.703 256 571.817 256 605.754 256 627 282.92 627 311.186 627 338.792 606.007 368 568.333 368zm28.716-18.935c5.564-7.507 6.951-16.876 6.951-26.01 0-20.658-9.754-60.055-38.472-60.055-7.673 0-15.29 3.024-20.854 7.959-9.067 8.209-10.674 18.524-10.674 28.644C534 322.777 545.368 361 573.413 361c9.046 0 18.285-4.442 23.636-11.935zM496.775 361.08l-31.086 7.165c-12.595 1.998-23.905 3.755-35.882 3.755-59.96 0-82.807-44.418-82.807-79.183C347 250.363 379.371 211 434.81 211c11.728 0 23.011 1.736 33.29 4.557 16.293 4.606 23.913 10.284 28.675 13.61l-18.058 17.261-7.613 1.715 5.428-8.706c-7.352-7.227-20.868-20.567-46.52-20.567-34.294 0-60.165 26.237-60.165 64.542 0 41.14 29.54 79.84 76.918 79.84 13.922 0 21.088-2.815 27.596-5.443V322.54l-32.825 1.778 17.398-9.406H505l-5.635 5.457c-1.518 1.3-1.724 1.743-2.15 3.485-.227 1.992-.44 8.326-.44 10.553v26.673M1078.702 349.94V409H1067V258.714h11.702v17.117c7.624-11.063 21.554-19.831 37.733-19.831 29.02 0 48.565 22.064 48.565 56.992 0 34.694-19.545 57.219-48.565 57.219-15.274 0-28.957-7.896-37.733-20.271zM1153 313.892c0-26.602-13.742-46.892-38.108-46.892-15.132 0-29.603 12-35.892 22.464v48.614c6.29 10.485 20.76 22.922 35.892 22.922 24.366 0 38.108-20.464 38.108-47.108zM1181 217h12v151h-12V217zM1323.463 398.601c2.503 1.12 6.774 1.808 9.482 1.808 7.158 0 12.142-2.935 16.62-13.3l8.535-19.388L1312 258h13.054l39.545 95.081L1403.761 258H1417l-56.226 132.745c-5.835 13.678-15.015 20.255-27.623 20.255-3.785 0-8.776-.674-11.697-1.574l2.01-10.825M1290.438 367.851a203.472 203.472 0 0 1-1.814-9.93 66.743 66.743 0 0 1-.565-8.526c-4.034 5.935-9.75 10.876-17.052 14.766-7.308 3.918-14.252 5.839-23.774 5.839-11.466 0-20.368-2.826-26.718-8.561-6.33-5.729-9.515-13.489-9.515-23.308 0-9.805 4.613-17.765 13.81-23.853 9.199-6.115 21.086-9.155 35.8-9.155h27.449V291.53c0-7.83-2.662-13.986-7.978-18.45-5.337-4.47-12.825-6.73-22.533-6.73-8.874 0-16.072 2.066-21.554 6.088-5.433 4.104-8.17 9.19-8.17 15.319h-12.046l-.248-.587c-.434-8.265 3.337-15.513 11.356-21.773 7.985-6.254 18.444-9.398 31.317-9.398 12.832 0 23.216 3.096 31.042 9.273 7.819 6.115 11.742 14.953 11.742 26.507v53.966c0 3.877.186 7.622.669 11.27a71.7 71.7 0 0 0 2.344 10.835h-13.562zM1248.649 360c9.99 0 17.168-2.25 24.505-6.702 7.289-4.425 12.249-10.196 14.846-17.184V315h-27.557c-10.526 0-19.24 2.348-26.096 7.084-6.868 4.723-10.347 10.44-10.347 17.086 0 6.272 2.205 11.287 6.586 15.086 4.395 3.84 10.403 5.744 18.063 5.744z"/></g><g fill="#FFF"><path d="M343.042 115.311c0-21.54 17.201-35.396 38.59-35.396 14.335 0 23.71 6.364 29.552 14.157l-10.47 5.646c-3.968-5.133-10.919-9.126-19.082-9.126-14.548 0-25.357 10.254-25.357 24.719 0 14.253 10.809 24.719 25.357 24.719 7.502 0 14.115-3.179 17.421-6.153V123.31h-22.05v-10.568h34.843v25.546c-7.165 7.492-17.532 12.516-30.214 12.516-21.389 0-38.59-14.048-38.59-35.492M428.525 149.76V80.959h51.081V91.59h-38.002v17.734h37.22v10.626h-37.22v19.184h38.002v10.627h-51.08M514.345 149.76V91.59h-22.23V80.958h57.337V91.59h-22.23v58.17h-12.877M595.32 80.958h12.51v68.803h-12.51V80.958zM643.618 149.76V91.59h-22.236V80.958h57.336V91.59h-22.222v58.17h-12.878M721.46 115.362c0-20.448 15.733-35.447 38.053-35.447 22.195 0 38.047 15 38.047 35.447 0 20.442-15.852 35.441-38.047 35.441-22.32 0-38.054-14.999-38.054-35.44zm62.548-.524c0-14.03-9.64-24.498-24.495-24.498-14.965 0-24.501 10.467-24.501 24.498 0 13.923 9.536 24.498 24.501 24.498 14.855 0 24.495-10.575 24.495-24.498zM863.312 149.76l-38.291-49.2v49.2h-12.867V80.959h13.204l37.514 47.66v-47.66h12.873v68.803h-12.433"/></g></g></svg>