<svg width="36" height="36" viewBox="0 0 36 36" xmlns="http://www.w3.org/2000/svg"><title>Combined Shape</title><path d="M18 0c9.941 0 18 8.059 18 18s-8.059 18-18 18S0 27.941 0 18 8.059 0 18 0zm3.944 17.44c.794-.707 1.107-1.83 1.107-3.241 0-2.295-1.394-4.042-3.69-4.042H15.47a2 2 0 0 0-2 2v11.447a2 2 0 0 0 2 2h4.002c2.494 0 4.524-2.14 4.524-4.612 0-1.633-.839-2.89-2.052-3.553zm-2.957-5.187c1.324 0 2.206.927 2.206 2.097 0 1.213-.904 2.162-2.206 2.162H15.72v-4.259h3.266zM15.72 23.42v-4.877h3.376c1.545 0 2.56 1.038 2.56 2.45 0 1.346-1.015 2.427-2.56 2.427H15.72z" fill-rule="evenodd"/></svg>