<svg width="36" height="36" viewBox="0 0 36 36" xmlns="http://www.w3.org/2000/svg"><title>Combined Shape</title><path d="M18 0c9.941 0 18 8.059 18 18s-8.059 18-18 18S0 27.941 0 18 8.059 0 18 0zm4.84 17.316c1.017-.904 1.416-2.339 1.416-4.146 0-2.936-1.783-5.17-4.719-5.17H14a2 2 0 0 0-2 2v15.76a2 2 0 0 0 2 2h5.679c3.19 0 5.787-2.737 5.787-5.9 0-2.088-1.073-3.697-2.626-4.544zm-3.783-6.634c1.694 0 2.823 1.185 2.823 2.682 0 1.552-1.157 2.766-2.823 2.766H14.88v-5.448h4.178zM14.88 24.966v-6.239h4.32c1.976 0 3.274 1.327 3.274 3.134 0 1.722-1.298 3.105-3.274 3.105h-4.32z" fill-rule="evenodd"/></svg>