<svg xmlns="http://www.w3.org/2000/svg" width="24.03" height="24.03" viewBox="0 0 24.0254 24.0259"><path fill="#bcc6d0" d="M22.55 0H1.476C.66 0 0 .662 0 1.476V22.55c0 .814.661 1.476 1.476 1.476H22.55c.813 0 1.475-.662 1.475-1.476V1.476C24.025.662 23.363 0 22.55 0zm-.53 22.025H2V9.699h20.02v12.326zm0-14.327H2V2h20.02v5.697zm-4.1-1.849h.565c.554 0 1-.446 1-1s-.446-1-1-1h-.564a1 1 0 0 0 0 2zm-4.613 0h.564c.554 0 1-.446 1-1s-.446-1-1-1h-.564c-.554 0-1 .446-1 1s.446 1 1 1zM9.89 20.358c.646.29 1.162-.117 1.334-.476l3.387-7.188a1.003 1.003 0 0 0-1.814-.853l-3.383 7.183a.99.99 0 0 0 .476 1.334zm5.35-1.24c.48.417 1.102.186 1.318 0l3.124-2.687a.731.731 0 0 0 0-1.138l-3.124-2.687a1.04 1.04 0 0 0-1.319 0 .73.73 0 0 0 0 1.138l2.461 2.118-2.46 2.118a.73.73 0 0 0 0 1.138zm-7.773-.005c.363.313.957.313 1.32 0a.73.73 0 0 0 0-1.138l-2.462-2.113 2.461-2.118a.73.73 0 0 0 0-1.138c-.48-.417-1.103-.187-1.32 0l-3.122 2.687c-.368.314-.368.819 0 1.133l3.123 2.687z"/></svg>