<svg xmlns="http://www.w3.org/2000/svg" width="18" height="18" viewBox="0 0 18 18"><path fill="#FFF" d="M15.75 4.5H13.5V2.25A2.25 2.25 0 0 0 11.25 0h-4.5A2.25 2.25 0 0 0 4.5 2.25V4.5H2.25A2.25 2.25 0 0 0 0 6.75v9A2.25 2.25 0 0 0 2.25 18h13.5A2.25 2.25 0 0 0 18 15.75v-9a2.25 2.25 0 0 0-2.25-2.25zm-9-2.25h4.5V4.5h-4.5V2.25zm-4.5 4.5h13.5v3.656h-4.617C10.795 9.556 9.969 8.952 9 8.952s-1.795.605-2.133 1.454H2.25V6.75zm7.642 4.5a.892.892 0 1 1-1.784 0 .892.892 0 0 1 1.784 0zm-7.642 4.5v-3.656h4.617c.338.85 1.164 1.454 2.133 1.454s1.795-.605 2.133-1.454h4.617v3.656H2.25z"/></svg>