<svg xmlns="http://www.w3.org/2000/svg" width="12.01" height="11" viewBox="0 0 12.0088 10.999"><path fill="#242526" d="M11.944 3.648L10.67 6.957c-.175.453-.671.782-1.178.782H4.425c-.542 0-1.034-.38-1.145-.885L2.047 1.223H0V0h2.14c.543 0 1.035.38 1.145.885l.342 1.56h7.435c.324 0 .61.136.785.372.174.238.21.541.097.831zm-8.05.018l.624 2.852h4.973l1.081-2.852H3.895zm.958 4.889c.708 0 1.285.549 1.285 1.222S5.56 11 4.853 11s-1.285-.548-1.285-1.222.576-1.222 1.284-1.222zm4.497 0c.708 0 1.284.549 1.284 1.222S10.057 11 9.349 11c-.71 0-1.285-.548-1.285-1.222S8.64 8.555 9.35 8.555z"/></svg>