<svg xmlns="http://www.w3.org/2000/svg" viewBox="0 0 26 26"><path fill="#fff" d="M17.25 14.342V3.657c0-1.603-1.344-2.907-2.995-2.907H3.745C2.094.75.75 2.054.75 3.657v10.685c0 1.604 1.344 2.908 2.995 2.908h10.51c1.651 0 2.995-1.304 2.995-2.908zm-14.151 0V3.657c0-.34.29-.618.646-.618h10.51c.356 0 .646.277.646.618v10.685c0 .341-.29.618-.646.618H3.745c-.356 0-.646-.277-.646-.618zM22.255 8.75h-2.596v2.29h2.596c.356 0 .646.276.646.617v10.685c0 .341-.29.618-.646.618h-10.51c-.356 0-.646-.277-.646-.618v-2.665H8.75v2.665c0 1.604 1.344 2.908 2.995 2.908h10.51c1.651 0 2.995-1.304 2.995-2.908V11.657c0-1.603-1.344-2.907-2.995-2.907z"/></svg>