<svg xmlns="http://www.w3.org/2000/svg" width="24.7" height="22.93" viewBox="0 0 24.7002 22.9258"><path fill="#bcc6d0" d="M23.9 4.032a7.615 7.615 0 0 0-2.806-2.943 7.679 7.679 0 0 0-5.688-.886 7.58 7.58 0 0 0-3.062 1.521A7.55 7.55 0 0 0 9.28.202a7.589 7.589 0 0 0-5.823.991A7.681 7.681 0 0 0 .686 4.34c-.705 1.472-.867 3.1-.484 4.84.263 1.19.77 2.423 1.597 3.878 1.16 2.043 2.75 3.988 4.728 5.783l.715.658c1.072.992 2.288 2.117 3.598 2.978a2.756 2.756 0 0 0 2.976.025 27.078 27.078 0 0 0 6.051-5.231c1.841-2.13 3.821-4.706 4.549-7.652a9.61 9.61 0 0 0 .278-1.932c.051-1.343-.216-2.572-.794-3.654zm-1.673 3.562a7.088 7.088 0 0 1-.21 1.431c-.601 2.44-2.368 4.721-4.018 6.63a24.66 24.66 0 0 1-5.5 4.758.287.287 0 0 1-.302 0c-1.136-.748-2.223-1.753-3.274-2.725a97.65 97.65 0 0 0-.736-.675c-1.783-1.62-3.21-3.362-4.24-5.176-1.039-1.828-2.095-4.212-1.033-6.433.855-1.785 2.66-2.938 4.599-2.938a5.12 5.12 0 0 1 4.056 1.977c.377.482 1.174.48 1.55 0a5.124 5.124 0 0 1 4.057-1.977 5.212 5.212 0 0 1 4.546 2.727c.368.693.538 1.5.505 2.4z"/></svg>