<svg xmlns="http://www.w3.org/2000/svg" width="10.67" height="10" viewBox="0 0 10.666 9.998"><path fill-rule="evenodd" clip-rule="evenodd" fill="#242526" d="M1.293 0C.511 0 0 .504 0 1.166 0 1.812.495 2.33 1.263 2.33h.014c.798 0 1.293-.518 1.293-1.164C2.557.504 2.075 0 1.293 0zM.135 9.998H2.42V3.252H.135v6.746zm7.898-6.904c-1.214 0-1.757.654-2.06 1.114v.023h-.016l.016-.023v-.956H3.687c.03.633 0 6.746 0 6.746h2.286V6.231c0-.202.013-.404.076-.547.164-.405.54-.82 1.172-.82.827 0 1.158.618 1.158 1.526v3.608h2.287V6.13c0-2.072-1.129-3.036-2.633-3.036z"/></svg>