<svg xmlns="http://www.w3.org/2000/svg" width="24.5" height="24.5" viewBox="0 0 24.4985 24.5049"><path fill="#1b8bf9" d="M24.125 22.322l-3.729-3.728c3.596-4.504 3.243-11.148-.85-15.24A11.375 11.375 0 0 0 11.448 0c-3.06 0-5.936 1.191-8.099 3.354-4.466 4.466-4.466 11.732 0 16.198a11.378 11.378 0 0 0 8.099 3.355c2.634 0 5.098-.865 7.141-2.504l3.728 3.728c.24.241.561.374.904.374s.663-.133.903-.374c.5-.5.5-1.31 0-1.809zm-6.386-4.579c-1.68 1.68-3.915 2.607-6.291 2.607s-4.61-.926-6.29-2.607c-3.469-3.468-3.469-9.111 0-12.58 1.68-1.68 3.913-2.605 6.29-2.605s4.611.925 6.29 2.605c3.468 3.469 3.468 9.112 0 12.58z"/></svg>