<svg xmlns="http://www.w3.org/2000/svg" width="24" height="24" viewBox="0 0 24 24"><path fill="#fff" d="M23 0H.999A.996.996 0 0 0 0 .998V23c0 .554.445 1 .999 1H23c.555 0 1-.446 1-1V.998A.996.996 0 0 0 23 0zM11 2l5.912-.002L14 6H8l3-4zm-3.09-.002L5 6H2l-.002-4.002H7.91zm14.086 20.004H1.998L2 8h20l-.004 14.002zM22 6h-5l3-4h2v4zM8.855 19.963a1.013 1.013 0 0 0 1.053-.111l5.422-4.316a1 1 0 0 0 0-1.567L9.913 9.654a.997.997 0 0 0-1.621.784v8.624c0 .383.216.735.563.9zm1.436-7.454l2.816 2.24-2.816 2.237V12.51z"/></svg>