<svg xmlns="http://www.w3.org/2000/svg" width="15.99" height="11.01" viewBox="0 0 15.9902 11.0078"><path fill="#1b8bf9" d="M3.51 4.003a3.498 3.498 0 0 1 3.495 3.503 3.498 3.498 0 0 1-3.494 3.502A3.499 3.499 0 0 1 .016 7.506L0 7.005C0 3.136 3.129 0 6.99 0v2.002c-1.335 0-2.589.52-3.531 1.465a5.205 5.205 0 0 0-.497.579 3.51 3.51 0 0 1 .549-.043zm8.986 0a3.498 3.498 0 0 1 3.494 3.503 3.498 3.498 0 0 1-3.494 3.502 3.499 3.499 0 0 1-3.495-3.502l-.016-.501c0-3.869 3.13-7.005 6.99-7.005v2.002c-1.333 0-2.587.52-3.53 1.465a5.092 5.092 0 0 0-.497.579 3.5 3.5 0 0 1 .548-.043z"/></svg>