<svg xmlns="http://www.w3.org/2000/svg" width="24.5" height="24.5" viewBox="0 0 24.5 24.5"><path fill="#1b8bf9" d="M22.906 6.227c-.014-.034-.027-.067-.048-.102a.83.83 0 0 0-.104-.146 12.288 12.288 0 0 0-4.202-4.21 1.247 1.247 0 0 0-.175-.126.555.555 0 0 0-.105-.047A12.223 12.223 0 0 0 12.25 0c-2.1 0-4.184.552-6.024 1.594a.756.756 0 0 0-.245.152A12.27 12.27 0 0 0 1.77 5.947a1.087 1.087 0 0 0-.126.176.559.559 0 0 0-.05.104A12.23 12.23 0 0 0 0 12.25C0 19.005 5.495 24.5 12.25 24.5S24.5 19.005 24.5 12.25c0-2.102-.552-4.185-1.594-6.023zm-1.845 7.302h.797c-.633 4.817-4.716 8.414-9.608 8.414s-8.975-3.597-9.608-8.414h.798c.705 0 1.279-.574 1.279-1.279s-.575-1.278-1.279-1.278h-.798c.109-.822.329-1.631.655-2.414l.683.394c.586.339 1.407.121 1.748-.468a1.273 1.273 0 0 0-.469-1.746l-.678-.391a9.74 9.74 0 0 1 1.765-1.765l.391.678c.34.586 1.153.81 1.747.467a1.28 1.28 0 0 0 .468-1.747l-.394-.683a9.553 9.553 0 0 1 2.414-.654v.797c0 .705.573 1.279 1.278 1.279s1.278-.574 1.278-1.28v-.796a9.57 9.57 0 0 1 2.415.654l-.395.683a1.282 1.282 0 0 0 .467 1.748c.584.339 1.405.122 1.749-.468l.39-.678a9.704 9.704 0 0 1 1.765 1.765l-.678.391c-.296.171-.508.447-.596.777-.089.329-.044.675.127.97.341.588 1.162.808 1.747.467l.685-.394c.325.784.544 1.593.654 2.414h-.798a1.28 1.28 0 0 0 0 2.557zm-5.586-.787l-.03-.09c-.432-1.39-1.586-3.19-2.062-3.898-.227-.336-.623-.535-1.062-.535s-.835.199-1.061.536c-.47.7-1.61 2.477-2.052 3.864l-.027.083a2.043 2.043 0 0 0-.078.27 2.742 2.742 0 0 0-.087.632 3.31 3.31 0 0 0 3.305 3.307 3.31 3.31 0 0 0 3.307-3.307c0-.177-.028-.384-.085-.625a1.892 1.892 0 0 0-.068-.237zM12.47 14.34a.731.731 0 0 1-.878-.714.73.73 0 0 1 1.459 0 .732.732 0 0 1-.581.714z"/></svg>