<svg xmlns="http://www.w3.org/2000/svg" width="14.33" height="14.29" viewBox="0 0 14.332 14.2861"><path fill="#1b8bf9" d="M11.279 14.286a.483.483 0 0 1-.237-.061l-3.875-2.127-3.876 2.127c-.173.094-.381.079-.539-.04s-.236-.322-.203-.522l.74-4.507L.155 5.965a.552.552 0 0 1-.13-.547.52.52 0 0 1 .413-.363l4.333-.657 1.938-4.1A.507.507 0 0 1 7.166 0c.194 0 .372.115.457.298l1.939 4.1 4.333.657a.52.52 0 0 1 .412.363.55.55 0 0 1-.13.547l-3.135 3.191.74 4.507a.546.546 0 0 1-.202.522.496.496 0 0 1-.301.101z"/></svg>