<svg xmlns="http://www.w3.org/2000/svg" width="26.17" height="24.01" viewBox="0 0 26.1719 24.0137"><path fill="#fff" d="M23.657 0c-.115 0-.233.008-.349.024L8.818 2.047a2.55 2.55 0 0 0-2.197 2.525v7.45a6.351 6.351 0 0 0-.542-.029h-.067C2.72 11.992.022 14.67 0 17.96a5.984 5.984 0 0 0 1.745 4.277 5.987 5.987 0 0 0 4.267 1.776c.805 0 1.586-.156 2.324-.467a5.96 5.96 0 0 0 1.9-1.27 5.987 5.987 0 0 0 1.785-4.14l.002-.081V9.364l8.749-1.22v1.699a6.266 6.266 0 0 0-.563-.03h-.048a5.994 5.994 0 0 0-4.246 1.762 6.009 6.009 0 0 0-1.29 1.907 5.953 5.953 0 0 0-.475 2.341c0 .812.16 1.599.473 2.341.301.715.735 1.357 1.288 1.91.55.551 1.193.984 1.91 1.286.742.315 1.53.474 2.34.474h.043a5.886 5.886 0 0 0 2.337-.501 6.104 6.104 0 0 0 3.16-3.22c.314-.742.47-1.526.47-2.329V2.517A2.518 2.518 0 0 0 23.658 0zm-.964 11.606V6.734a.695.695 0 0 0-.792-.688L10.7 7.609a.699.699 0 0 0-.599.689v9.756a4.107 4.107 0 0 1-4.09 4.039 4.068 4.068 0 0 1-2.903-1.208 4.065 4.065 0 0 1-1.188-2.911 4.101 4.101 0 0 1 4.09-4.06h.048a4.067 4.067 0 0 1 1.682.382.564.564 0 0 0 .802-.51V4.572c0-.311.233-.579.542-.623l14.489-2.022a.597.597 0 0 1 .679.59v13.267c0 2.26-1.823 4.112-4.06 4.13h-.032c-2.254 0-4.09-1.836-4.09-4.09s1.836-4.09 4.09-4.09h.033a4.066 4.066 0 0 1 1.696.382.564.564 0 0 0 .802-.51z"/></svg>