<svg height="10" width="12" xmlns="http://www.w3.org/2000/svg" viewBox="0 0 12 10"><path fill="#fff" fill-rule="evenodd" d="M11.33 1.44c-.42.19-.87.31-1.34.37.48-.29.85-.76 1.03-1.3-.45.27-.95.46-1.48.57C9.12.62 8.51.33 7.84.33c-1.28 0-2.32 1.06-2.32 2.36 0 .18.02.36.06.54A6.558 6.558 0 0 1 .79.76c-.2.35-.32.76-.32 1.19 0 .82.41 1.54 1.04 1.96-.38-.01-.74-.12-1.06-.29v.02c0 1.15.8 2.1 1.87 2.32-.2.05-.4.08-.61.08-.15 0-.3-.02-.44-.04.29.93 1.15 1.61 2.17 1.63A4.653 4.653 0 0 1 0 8.61c1.03.67 2.25 1.06 3.56 1.06 4.28 0 6.62-3.59 6.62-6.71 0-.1-.01-.2-.01-.3.45-.33.85-.75 1.16-1.22z"/></svg>