<svg xmlns="http://www.w3.org/2000/svg" width="16.6" height="24.6" viewBox="0 0 16.6006 24.5996"><path fill="#bcc6d0" d="M16.488 10.32a1.023 1.023 0 0 0-.916-.57h-4.79V1.049c0-.458-.286-.86-.714-1a1.026 1.026 0 0 0-1.154.397L.186 13.197c-.217.32-.247.736-.073 1.082.178.352.528.57.914.57h4.791v8.7c0 .458.287.86.715 1a1.02 1.02 0 0 0 1.154-.397l8.727-12.75c.219-.32.248-.735.074-1.083zm-9.642 2.43H3l5.729-8.368V10.8c0 .579.46 1.05 1.027 1.05H13.6l-5.727 8.367V13.8c0-.58-.46-1.05-1.027-1.05z"/></svg>