<svg xmlns="http://www.w3.org/2000/svg" width="26.3" height="26.3" viewBox="0 0 26.3008 26.3003"><path fill="#bcc6d0" d="M13.15 0C5.9 0 0 5.9 0 13.15 0 20.4 5.9 26.3 13.15 26.3S26.3 20.401 26.3 13.15C26.3 5.9 20.402 0 13.15 0zm0 24C7.167 24 2.3 19.133 2.3 13.15S7.168 2.3 13.15 2.3 24 7.167 24 13.15 19.133 24 13.15 24zm4.546-12.556h-2.883V6.12a.766.766 0 0 0-.524-.732.764.764 0 0 0-.848.292l-5.456 7.97a.781.781 0 0 0-.051.788.746.746 0 0 0 .67.42h2.883v5.325c0 .334.21.629.524.732a.751.751 0 0 0 .849-.292l5.455-7.97a.782.782 0 0 0 .052-.79.749.749 0 0 0-.67-.418zm-4.7 6.291v-3.647a.763.763 0 0 0-.755-.769h-2.19l3.254-4.754v3.647c0 .425.339.77.755.77h2.19l-3.254 4.753z"/></svg>