<svg width="645" height="600" viewBox="0 0 645 600" xmlns="http://www.w3.org/2000/svg"><defs><linearGradient x1="50%" y1="100%" x2="50%" y2="0%" id="a"><stop stop-color="#62CBFF" offset="0%"/><stop stop-color="#339CFF" offset="100%"/></linearGradient></defs><path d="M816.7 536.5L760.4 590c-16 15.2-16.6 40.6-1.4 56.6 15.2 16 40.6 16.6 56.6 1.4l7.2-7c-19 90.5-99 158.5-194.8 159H328c-27.6 0-50-22.4-50-50s22.4-50 50-50c110.5 0 200-89.5 200-200s-89.5-200-200-200c-27.6 0-50-22.4-50-50s22.4-50 50-50c130.6 0 241.7 83.5 283 200h17c25.8 0 50.4 5 73 14l-96.6 92c-16 15.2-16.6 40.6-1.4 56.6 15.2 16 40.6 16.6 56.6 1.4l103-98c2.3-2.2 4.3-4.7 6-7.3l3.6 3.8-87.8 83.5c-16 15.2-16.6 40.6-1.4 56.6 15.2 16 40.6 16.6 56.6 1.4l75.6-72 1.5 4.5zM278 600c-55.2 0-100-44.8-100-100s44.8-100 100-100 100 44.8 100 100-44.8 100-100 100zm0-75c13.8 0 25-11.2 25-25s-11.2-25-25-25-25 11.2-25 25 11.2 25 25 25zm25 20c5.5 0 10-4.5 10-10s-4.5-10-10-10-10 4.5-10 10 4.5 10 10 10z" transform="translate(-178 -200)" fill="url(#a)" fill-rule="evenodd"/></svg>