<?xml version="1.0" encoding="UTF-8" standalone="no"?>
<svg width="1477px" height="500px" viewBox="0 0 1477 500" version="1.1" xmlns="http://www.w3.org/2000/svg" xmlns:xlink="http://www.w3.org/1999/xlink" xmlns:sketch="http://www.bohemiancoding.com/sketch/ns">
    <!-- Generator: Sketch 3.5.2 (25235) - http://www.bohemiancoding.com/sketch -->
    <title>App Store</title>
    <desc>Created with Sketch.</desc>
    <defs></defs>
    <g id="Page-1" stroke="none" stroke-width="1" fill="none" fill-rule="evenodd" sketch:type="MSPage">
        <g id="Artboard-1" sketch:type="MSArtboardGroup" transform="translate(-462.000000, -850.000000)">
            <g id="App-Store" sketch:type="MSLayerGroup" transform="translate(462.000000, 850.000000)">
                <rect id="background" fill="#000000" sketch:type="MSShapeGroup" x="0" y="0" width="1477" height="500" rx="60"></rect>
                <g id="icon" transform="translate(130.000000, 88.000000)" fill="#FFFFFF" sketch:type="MSShapeGroup">
                    <path d="M193.340766,150.55423 C193.018956,114.788858 222.625537,97.3888881 223.979361,96.5788129 C207.211916,72.132299 181.22293,68.7921262 172.090165,68.5258002 C150.262524,66.2287378 129.089602,81.5868745 117.970488,81.5868745 C106.629437,81.5868745 89.5068896,68.7477385 71.0527122,69.1250338 C47.3053043,69.4912322 25.0892712,83.2403156 12.9048535,104.590789 C-12.2407663,148.124005 6.5130278,212.097746 30.6044403,247.286078 C42.655695,264.530691 56.737686,283.761653 75.1696694,283.084741 C93.2021638,282.352344 99.937994,271.588332 121.699053,271.588332 C143.260368,271.588332 149.585612,283.084741 168.383794,282.640864 C187.736822,282.352344 199.92124,265.340766 211.550811,247.940796 C225.477446,228.210473 231.070293,208.735379 231.292231,207.736657 C230.848355,207.592397 193.718062,193.42163 193.340766,150.55423" id="Fill-2"></path>
                    <path d="M157.830624,45.3776258 C167.529331,33.2486927 174.165289,16.7475733 172.323201,0.00232156273 C158.285597,0.623749061 140.73027,9.71212622 130.620977,21.5747333 C121.67686,32.0280316 113.687077,49.1616754 115.751104,65.2744027 C131.519827,66.4506762 147.710233,57.3179113 157.830624,45.3776258" id="Fill-3"></path>
                </g>
                <g transform="translate(459.000000, 218.000000)" fill="#FFFFFF" sketch:type="MSShapeGroup">
                    <path d="M125.528963,150.610128 L100.327859,150.610128 L86.5232908,107.232269 L38.5402104,107.232269 L25.3903606,150.610128 L0.855071375,150.610128 L48.4053719,2.93232156 L77.7678212,2.93232156 L125.528963,150.610128 L125.528963,150.610128 Z M82.3619459,89.0333208 L69.8779113,50.4826221 C68.5573779,46.5321187 66.0716679,37.2550939 62.4318783,22.6515477 L61.9880015,22.6515477 C60.5232081,28.9324042 58.1817581,38.209429 54.9747483,50.4826221 L42.7015552,89.0333208 L82.3619459,89.0333208 L82.3619459,89.0333208 Z" id="Fill-4"></path>
                    <path d="M247.572885,96.0576709 C247.572885,114.167844 242.65695,128.48287 232.813982,138.991653 C224.003028,148.346356 213.050368,153.018159 199.989294,153.018159 C185.885109,153.018159 175.742524,147.991255 169.583734,137.904155 L169.583734,193.777145 L145.925101,193.777145 L145.925101,79.1237716 C145.925101,67.749429 145.625485,56.0865665 145.048445,44.1240872 L165.855169,44.1240872 L167.175702,61.0135988 L167.619579,61.0135988 C175.509489,48.285432 187.483065,41.9268971 203.551405,41.9268971 C216.113118,41.9268971 226.599707,46.8872201 234.988978,56.8189632 C243.367153,66.7729001 247.572885,79.8450714 247.572885,96.0576709 L247.572885,96.0576709 Z M223.470376,96.9232307 C223.470376,86.5587077 221.140023,78.0140796 216.457122,71.2893464 C211.341443,64.2871901 204.472449,60.7694666 195.86124,60.7694666 C190.02426,60.7694666 184.719932,62.7225244 179.981548,66.5842524 C175.232066,70.4570774 172.124929,75.5283696 170.671232,81.8203231 C169.938835,84.7388129 169.572637,87.1246506 169.572637,89.011127 L169.572637,106.788392 C169.572637,114.511848 171.947378,121.047934 176.69686,126.396649 C181.446341,131.723171 187.616228,134.397528 195.206521,134.397528 C204.117348,134.397528 211.052923,130.946386 216.013246,124.099587 C220.984666,117.230594 223.470376,108.175507 223.470376,96.9232307 L223.470376,96.9232307 Z" id="Fill-5"></path>
                    <path d="M370.049587,96.0576709 C370.049587,114.167844 365.133651,128.48287 355.290684,138.991653 C346.468633,148.346356 335.52707,153.018159 322.454899,153.018159 C308.361811,153.018159 298.219226,147.991255 292.049339,137.904155 L292.049339,193.777145 L268.390706,193.777145 L268.390706,79.1237716 C268.390706,67.749429 268.091089,56.0865665 267.51405,44.1240872 L288.320774,44.1240872 L289.641307,61.0135988 L290.085184,61.0135988 C297.963997,48.285432 309.937573,41.9268971 326.01701,41.9268971 C338.567626,41.9268971 349.065312,46.8872201 357.46568,56.8189632 C365.832757,66.7729001 370.049587,79.8450714 370.049587,96.0576709 L370.049587,96.0576709 Z M345.93598,96.9232307 C345.93598,86.5587077 343.59453,78.0140796 338.91163,71.2893464 C333.807047,64.2871901 326.949151,60.7694666 318.337941,60.7694666 C312.500962,60.7694666 307.196634,62.7225244 302.436056,66.5842524 C297.697671,70.4570774 294.590533,75.5283696 293.136837,81.8203231 C292.415537,84.7388129 292.027145,87.1246506 292.027145,89.011127 L292.027145,106.788392 C292.027145,114.511848 294.412983,121.047934 299.14027,126.396649 C303.889752,131.712074 310.059639,134.397528 317.672126,134.397528 C326.59405,134.397528 333.529624,130.946386 338.47885,124.099587 C343.45027,117.230594 345.93598,108.175507 345.93598,96.9232307 L345.93598,96.9232307 Z" id="Fill-6"></path>
                    <path d="M506.985575,109.196424 C506.985575,121.758137 502.602292,131.9784 493.857919,139.86831 C484.247986,148.479519 470.831811,152.796221 453.631585,152.796221 C437.740796,152.796221 425.001533,149.733471 415.3916,143.596875 L420.862382,123.877648 C431.238002,130.014245 442.634538,133.088092 455.040894,133.088092 C463.962817,133.088092 470.898392,131.068452 475.847618,127.062464 C480.819038,123.034282 483.315845,117.67447 483.315845,110.971931 C483.315845,104.968497 481.251818,99.9304959 477.168152,95.8357325 C473.073388,91.763163 466.304267,87.9458227 456.805304,84.4613899 C430.949482,74.8181668 418.010473,60.702885 418.010473,42.1599324 C418.010473,30.0420962 422.582404,20.12145 431.692975,12.3647032 C440.814643,4.61905334 452.910285,0.7462284 467.957708,0.7462284 C481.396078,0.7462284 492.59287,3.08767844 501.481503,7.75948159 L495.544651,27.0459279 C487.177573,22.5183847 477.734095,20.2546131 467.169827,20.2546131 C458.824944,20.2546131 452.266664,22.3075432 447.594861,26.3912096 C443.655455,30.0420962 441.646912,34.4919609 441.646912,39.7740947 C441.646912,45.5999775 443.921781,50.4382344 448.460421,54.222284 C452.38873,57.7289106 459.55734,61.535154 469.921863,65.6188204 C482.638933,70.7455973 491.971443,76.71574 497.963779,83.5736364 C503.989406,90.4315327 506.985575,98.9872577 506.985575,109.196424" id="Fill-7"></path>
                    <path d="M585.407506,61.8791585 L559.329745,61.8791585 L559.329745,113.579707 C559.329745,126.729557 563.923869,133.287836 573.134313,133.287836 C577.362239,133.287836 580.868866,132.932735 583.643095,132.189241 L584.297814,150.155154 C579.637107,151.89737 573.500511,152.774027 565.910218,152.774027 C556.555515,152.774027 549.264838,149.911022 543.982705,144.218302 C538.722765,138.514485 536.092795,128.960038 536.092795,115.510571 L536.092795,61.8347708 L520.568204,61.8347708 L520.568204,44.0796995 L536.092795,44.0796995 L536.092795,24.5824117 L559.329745,17.5691585 L559.329745,44.0796995 L585.407506,44.0796995 L585.407506,61.8791585" id="Fill-8"></path>
                    <path d="M702.835109,96.4904508 C702.835109,112.858407 698.163306,126.296777 688.808603,136.80556 C679.032216,147.613959 666.026627,153.018159 649.814027,153.018159 C634.16737,153.018159 621.727724,147.835898 612.450699,137.471375 C603.173674,127.106852 598.535162,114.034681 598.535162,98.2659579 C598.535162,81.7648385 603.340128,68.2487904 612.883479,57.7400075 C622.449023,47.2312246 635.343644,41.9601878 651.556243,41.9601878 C667.191803,41.9601878 679.731322,47.1646431 689.241382,57.5180691 C698.318663,67.5829752 702.835109,80.5552742 702.835109,96.4904508 L702.835109,96.4904508 Z M678.310917,97.0341998 C678.310917,87.2800075 676.202502,78.9129301 671.974576,71.9107739 C667.014252,63.4549211 659.901127,59.2380917 650.712878,59.2380917 C641.247205,59.2380917 633.956529,63.4549211 629.0184,71.9107739 C624.768279,78.9129301 622.670962,87.4242675 622.670962,97.4780766 C622.670962,107.243366 624.768279,115.632637 629.0184,122.601503 C634.13408,131.068452 641.269399,135.296379 650.52423,135.296379 C659.557122,135.296379 666.648054,130.96858 671.785928,122.401758 C676.124823,115.233148 678.310917,106.810586 678.310917,97.0341998 L678.310917,97.0341998 Z" id="Fill-9"></path>
                    <path d="M779.770053,64.9308114 C777.428603,64.4980316 774.920699,64.2871901 772.312923,64.2871901 C763.990233,64.2871901 757.55402,67.4054245 753.026476,73.7084748 C749.08707,79.2569346 747.122915,86.2701878 747.122915,94.7371375 L747.122915,150.610128 L723.464282,150.610128 L723.464282,77.6589782 C723.464282,65.396882 723.231247,54.2000902 722.776273,44.1351841 L743.383253,44.1351841 L744.248813,64.5091285 L744.903531,64.5091285 C747.411435,57.5069722 751.339745,51.8586401 756.732847,47.6418107 C762.014981,43.8244703 767.696604,41.9268971 773.833201,41.9268971 C776.019294,41.9268971 777.994545,42.0933509 779.747859,42.3596769 L779.770053,64.9308114" id="Fill-10"></path>
                    <path d="M885.579181,92.3291059 C885.579181,96.5681292 885.301758,100.141337 884.713621,103.059827 L813.74882,103.059827 C814.00405,113.579707 817.455192,121.636071 824.035665,127.18453 C830.016905,132.133757 837.762554,134.619467 847.250421,134.619467 C857.759204,134.619467 867.346942,132.954929 875.969249,129.581465 L879.67562,146.004906 C869.599617,150.388189 857.692622,152.585379 843.976829,152.585379 C827.464613,152.585379 814.503411,147.724929 805.071029,138.026221 C795.671938,128.316416 790.944651,115.255342 790.944651,98.9206762 C790.944651,82.8745304 795.316837,69.5027423 804.105597,58.8386026 C813.293847,47.453163 825.7113,41.7604433 841.335763,41.7604433 C856.682802,41.7604433 868.301277,47.453163 876.18009,58.8386026 C882.438753,67.8603982 885.579181,79.0460932 885.579181,92.3291059 L885.579181,92.3291059 Z M863.019144,86.1925094 C863.185597,79.1681593 861.632029,73.131435 858.425019,68.0046582 C854.330255,61.4130879 848.027205,58.1283997 839.582449,58.1283997 C831.836799,58.1283997 825.544846,61.3354095 820.750977,67.7716228 C816.81157,72.8873028 814.47012,79.0460932 813.74882,86.1703156 L863.019144,86.1925094 L863.019144,86.1925094 Z" id="Fill-11"></path>
                </g>
                <g id="Available-on-the" transform="translate(469.000000, 92.000000)" fill="#FFFFFF" sketch:type="MSShapeGroup">
                    <path d="M60.9543125,76.0776935 L48.5590533,76.0776935 L41.7788355,54.7605109 L18.1978813,54.7605109 L11.7283772,76.0776935 L-0.333974455,76.0776935 L23.0361382,3.4927423 L37.4621337,3.4927423 L60.9543125,76.0776935 L60.9543125,76.0776935 Z M39.7370023,45.8163937 L33.6004057,26.862855 C32.9567844,24.9208941 31.769414,20.4044478 29.9384222,13.19145 L29.7164838,13.19145 C28.9618933,16.3096844 27.8854921,20.8372276 26.2653418,26.862855 L20.2397145,45.8163937 L39.7370023,45.8163937 L39.7370023,45.8163937 Z" id="Fill-12"></path>
                    <path d="M119.390691,23.7446206 L99.5715928,76.0776935 L88.2638317,76.0776935 L69.0883546,23.7446206 L81.5834861,23.7446206 L90.5276033,51.4203381 C92.0367844,56.0477536 93.324027,60.4643276 94.2894591,64.6589632 L94.6112697,64.6589632 C95.4768295,60.8971074 96.7640721,56.4805334 98.3731255,51.4203381 L107.206273,23.7446206 L119.390691,23.7446206" id="Fill-13"></path>
                    <path d="M161.58118,76.0776935 L160.71562,70.0520661 L160.393809,70.0520661 C156.842795,74.90142 151.67163,77.2650639 145.102254,77.2650639 C135.736454,77.2650639 129.056108,70.6956875 129.056108,61.8625394 C129.056108,48.945725 140.2529,42.2653794 159.639219,42.2653794 L159.639219,41.2999474 C159.639219,34.4087603 155.977235,30.9576183 148.764237,30.9576183 C143.593073,30.9576183 139.06553,32.2559579 135.092832,34.8415402 L132.729189,27.1957626 C137.578542,24.1774005 143.60417,22.6682194 150.717295,22.6682194 C164.3887,22.6682194 171.290984,29.8812171 171.290984,44.3183095 L171.290984,63.5936589 C171.290984,68.8757926 171.512923,72.970556 172.045575,76.0887904 L161.58118,76.0776935 L161.58118,76.0776935 Z M159.961029,50.0110293 C147.033118,50.0110293 140.574711,53.1403606 140.574711,60.5641998 C140.574711,66.0571751 143.914884,68.7426296 148.542299,68.7426296 C154.468054,68.7426296 159.961029,64.2261833 159.961029,58.0895868 L159.961029,50.0110293 L159.961029,50.0110293 Z" id="Fill-14"></path>
                    <path d="M197.191195,15.122314 C193.31837,15.122314 190.300008,12.1039519 190.300008,8.12015778 C190.300008,4.13636364 193.418242,1.2289707 197.413133,1.2289707 C201.396927,1.2289707 204.626131,4.13636364 204.515162,8.12015778 C204.515162,12.3258903 201.507896,15.122314 197.191195,15.122314 L197.191195,15.122314 Z M191.598347,23.7446206 L203.227919,23.7446206 L203.227919,76.0776935 L191.598347,76.0776935 L191.598347,23.7446206 Z" id="Fill-15"></path>
                    <path d="M223.890383,-0.269113449 L235.519955,-0.269113449 L235.519955,76.0776935 L223.890383,76.0776935 L223.890383,-0.269113449 Z" id="Fill-16"></path>
                    <path d="M284.945635,76.0776935 L284.068978,70.0520661 L283.758264,70.0520661 C280.20725,74.90142 275.036086,77.2650639 268.466709,77.2650639 C259.100909,77.2650639 252.420563,70.6956875 252.420563,61.8625394 C252.420563,48.945725 263.617355,42.2653794 283.003674,42.2653794 L283.003674,41.2999474 C283.003674,34.4087603 279.34169,30.9576183 272.128693,30.9576183 C266.957528,30.9576183 262.429985,32.2559579 258.457288,34.8415402 L256.082547,27.1846657 C260.931901,24.1663035 266.957528,22.6571225 274.070654,22.6571225 C287.742059,22.6571225 294.65544,29.8701202 294.65544,44.3072126 L294.65544,63.582562 C294.65544,68.8646957 294.877378,72.9594591 295.387836,76.0776935 L284.945635,76.0776935 L284.945635,76.0776935 Z M283.325485,50.0110293 C270.397573,50.0110293 263.939166,53.1403606 263.939166,60.5641998 C263.939166,66.0571751 267.279339,68.7426296 271.906754,68.7426296 C277.832509,68.7426296 283.325485,64.2261833 283.325485,58.0895868 L283.325485,50.0110293 L283.325485,50.0110293 Z" id="Fill-17"></path>
                    <path d="M341.761863,77.2650639 C334.338024,77.2650639 328.856146,74.1357325 325.294035,67.999136 L325.072096,67.999136 L324.406281,76.0776935 L314.507829,76.0776935 C314.818542,71.8830579 314.929512,67.1335763 314.929512,61.9735086 L314.929512,-0.269113449 L326.581277,-0.269113449 L326.581277,31.4014951 L326.792119,31.4014951 C330.243261,25.5867092 335.836108,22.6793163 343.481886,22.6793163 C356.087986,22.6793163 364.921134,33.4544252 364.921134,49.1676634 C364.921134,65.4135537 355.111458,77.2650639 341.761863,77.2650639 L341.761863,77.2650639 Z M339.398219,31.8120811 C332.706777,31.8120811 326.581277,37.626867 326.581277,45.7054245 L326.581277,54.8603832 C326.581277,62.0733809 332.085349,67.999136 339.187378,67.999136 C347.89846,67.999136 353.091818,60.8971074 353.091818,49.5893464 C353.080721,39.0361758 347.687618,31.8120811 339.398219,31.8120811 L339.398219,31.8120811 Z" id="Fill-18"></path>
                    <path d="M382.132457,-0.269113449 L393.750932,-0.269113449 L393.750932,76.0776935 L382.132457,76.0776935 L382.132457,-0.269113449 Z" id="Fill-19"></path>
                    <path d="M457.047761,52.7075808 L422.136852,52.7075808 C422.369887,62.61713 428.91707,68.2099775 438.604681,68.2099775 C443.786942,68.2099775 448.525327,67.3444177 452.719962,65.7353644 L454.52876,73.8139219 C449.579534,75.9667243 443.764748,77.0431255 436.98453,77.0431255 C420.605477,77.0431255 410.917866,66.7007964 410.917866,50.6657476 C410.917866,34.6196018 420.838512,22.5572502 435.686191,22.5572502 C449.024688,22.5572502 457.44725,32.4667994 457.44725,47.436544 C457.480541,49.4783772 457.380669,51.3093689 457.047761,52.7075808 L457.047761,52.7075808 Z M446.394718,44.4181818 C446.394718,36.3396243 442.288858,30.6358077 434.853922,30.6358077 C428.173576,30.6358077 422.913636,36.4505935 422.136852,44.4181818 L446.394718,44.4181818 L446.394718,44.4181818 Z" id="Fill-20"></path>
                    <path d="M527.535394,77.2650639 C512.243839,77.2650639 502.33429,65.8463336 502.33429,50.3439369 C502.33429,34.1868219 512.454681,22.6682194 528.412051,22.6682194 C543.470571,22.6682194 553.613156,33.5432006 553.613156,49.4894741 C553.613156,65.8463336 543.159857,77.2650639 527.535394,77.2650639 L527.535394,77.2650639 Z M527.979271,31.1684598 C519.578903,31.1684598 514.196897,39.0250789 514.196897,50.0110293 C514.196897,60.7861382 519.689872,68.6427573 527.868302,68.6427573 C536.046732,68.6427573 541.539707,60.2423892 541.539707,49.7890909 C541.539707,39.1360481 536.157701,31.1684598 527.979271,31.1684598 L527.979271,31.1684598 Z" id="Fill-21"></path>
                    <path d="M616.133201,76.0776935 L604.525823,76.0776935 L604.525823,46.0272352 C604.525823,36.7724042 600.963711,32.1338918 593.961555,32.1338918 C587.070368,32.1338918 582.320887,38.0596469 582.320887,44.950834 L582.320887,76.0776935 L570.713509,76.0776935 L570.713509,38.7032682 C570.713509,34.0758527 570.580346,29.1155297 570.269632,23.7335237 L580.500992,23.7335237 L581.044741,31.8120811 L581.377648,31.8120811 C584.473689,26.2192337 590.843321,22.6571225 597.956446,22.6571225 C608.920203,22.6571225 616.133201,31.0574906 616.133201,44.7288956 L616.133201,76.0776935" id="Fill-22"></path>
                    <path d="M692.224778,32.4667994 L679.43003,32.4667994 L679.43003,57.8787453 C679.43003,64.3482494 681.682705,67.577453 686.199151,67.577453 C688.240984,67.577453 689.983201,67.3555147 691.370316,67.033704 L691.692126,75.866852 C689.428355,76.7324117 686.398896,77.1651916 682.659234,77.1651916 C673.482081,77.1651916 668.022397,72.1049962 668.022397,58.8552742 L668.022397,32.4667994 L660.398813,32.4667994 L660.398813,23.7446206 L668.022397,23.7446206 L668.022397,14.156882 L679.43003,10.70574 L679.43003,23.7335237 L692.224778,23.7335237 L692.224778,32.4667994" id="Fill-23"></path>
                    <path d="M753.812682,76.0776935 L742.172014,76.0776935 L742.172014,46.2491736 C742.172014,36.8833734 738.609902,32.1449887 731.618843,32.1449887 C725.593216,32.1449887 720.000368,36.2397521 720.000368,44.529151 L720.000368,76.0776935 L708.359699,76.0776935 L708.359699,-0.269113449 L720.000368,-0.269113449 L720.000368,31.1684598 L720.222307,31.1684598 C723.873193,25.4646431 729.166424,22.6571225 735.946642,22.6571225 C747.032464,22.6571225 753.812682,31.2683321 753.812682,44.950834 L753.812682,76.0776935" id="Fill-24"></path>
                    <path d="M813.236687,52.7075808 L778.336875,52.7075808 C778.558813,62.61713 785.105995,68.2099775 794.804703,68.2099775 C799.998062,68.2099775 804.725349,67.3444177 808.897791,65.7353644 L810.717686,73.8139219 C805.779557,75.9667243 799.953674,77.0431255 793.162359,77.0431255 C776.794403,77.0431255 767.106792,66.7007964 767.106792,50.6657476 C767.106792,34.6196018 777.016341,22.5572502 791.86402,22.5572502 C805.213614,22.5572502 813.625079,32.4667994 813.625079,47.436544 C813.669467,49.4783772 813.558497,51.3093689 813.236687,52.7075808 L813.236687,52.7075808 Z M802.572547,44.4181818 C802.572547,36.3396243 798.488881,30.6358077 791.053944,30.6358077 C784.373599,30.6358077 779.102562,36.4505935 778.336875,44.4181818 L802.572547,44.4181818 L802.572547,44.4181818 Z" id="Fill-25"></path>
                </g>
            </g>
        </g>
    </g>
</svg>