<?xml version="1.0" encoding="UTF-8"?>
<svg width="36px" height="36px" viewBox="0 0 36 36" version="1.1" xmlns="http://www.w3.org/2000/svg" xmlns:xlink="http://www.w3.org/1999/xlink">
    <!-- Generator: Sketch 46.2 (44496) - http://www.bohemiancoding.com/sketch -->
    <title>Combined Shape</title>
    <desc>Created with Sketch.</desc>
    <defs></defs>
    <g id="Logo" stroke="none" stroke-width="1" fill="none" fill-rule="evenodd">
        <g id="Option-Copy-3" fill="#000000">
            <path d="M18,0 L18,0 C27.9411255,-1.82615513e-15 36,8.0588745 36,18 L36,18 C36,27.9411255 27.9411255,36 18,36 C8.0588745,36 1.21743675e-15,27.9411255 0,18 L0,18 L0,18 C-1.21743675e-15,8.0588745 8.0588745,1.82615513e-15 18,0 L18,0 Z M21.9435312,17.4390932 C22.7379372,16.7329546 23.0505095,15.6108402 23.0505095,14.1985629 C23.0505095,11.9036124 21.6566624,10.1570386 19.3617119,10.1570386 L15.4698677,10.1570386 C14.3652982,10.1570386 13.4698677,11.0524691 13.4698677,12.1570386 L13.4698677,23.6038211 C13.4698677,24.7083906 14.3652982,25.6038211 15.4698677,25.6038211 L19.4720461,25.6038211 C21.9655981,25.6038211 23.9957466,23.4633383 23.9957466,20.9918531 C23.9957466,19.3589076 23.157207,18.1010981 21.9435312,17.4390932 Z M18.9865757,12.2533876 C20.3105857,12.2533876 21.193259,13.1801946 21.193259,14.3497367 C21.193259,15.5634125 20.2885188,16.5122862 18.9865757,16.5122862 L15.7206846,16.5122862 L15.7206846,12.2533876 L18.9865757,12.2533876 Z M15.7206846,23.4192047 L15.7206846,18.5424348 L19.0969099,18.5424348 C20.6415882,18.5424348 21.6566624,19.5795759 21.6566624,20.9918531 C21.6566624,22.3379299 20.6415882,23.4192047 19.0969099,23.4192047 L15.7206846,23.4192047 Z" id="Combined-Shape"></path>
        </g>
    </g>
</svg>