<?xml version="1.0" encoding="UTF-8"?>
<svg width="36px" height="36px" viewBox="0 0 36 36" version="1.1" xmlns="http://www.w3.org/2000/svg" xmlns:xlink="http://www.w3.org/1999/xlink">
    <!-- Generator: Sketch 46.2 (44496) - http://www.bohemiancoding.com/sketch -->
    <title>Combined Shape</title>
    <desc>Created with Sketch.</desc>
    <defs></defs>
    <g id="Logo" stroke="none" stroke-width="1" fill="none" fill-rule="evenodd">
        <g id="Option-Copy-3" fill="#000000">
            <path d="M18,0 L18,0 C27.9411255,-1.82615513e-15 36,8.0588745 36,18 L36,18 C36,27.9411255 27.9411255,36 18,36 C8.0588745,36 1.21743675e-15,27.9411255 0,18 L0,18 L0,18 C-1.21743675e-15,8.0588745 8.0588745,1.82615513e-15 18,0 L18,0 Z M22.840243,17.3158338 C23.8565158,16.4124802 24.2563853,14.9769745 24.2563853,13.1702674 C24.2563853,10.2343682 22.4732556,8 19.5373565,8 L14,8 C12.8954305,8 12,8.8954305 12,10 L12,25.7608596 C12,26.8654291 12.8954305,27.7608596 14,27.7608596 L14,27.7608596 L19.6785055,27.7608596 C22.8684728,27.7608596 25.4656144,25.0225691 25.4656144,21.8608316 C25.4656144,19.7718264 24.392882,18.1627278 22.840243,17.3158338 Z M19.0574499,10.681831 C20.7512378,10.681831 21.8804298,11.8674825 21.8804298,13.3636619 C21.8804298,14.9163009 20.723008,16.1301823 19.0574499,16.1301823 L14.8794395,16.1301823 L14.8794395,10.681831 L19.0574499,10.681831 Z M14.8794395,24.9661095 L14.8794395,18.7273238 L19.1985989,18.7273238 C21.1746848,18.7273238 22.4732556,20.0541244 22.4732556,21.8608316 C22.4732556,23.5828493 21.1746848,24.9661095 19.1985989,24.9661095 L14.8794395,24.9661095 Z" id="Combined-Shape"></path>
        </g>
    </g>
</svg>