<svg height="26" width="27" xmlns:xlink="http://www.w3.org/1999/xlink" xmlns="http://www.w3.org/2000/svg" viewBox="0 0 27 26">
    <path fill="#242526" fill-rule="evenodd" d="M 13.48 26 C 6.3 26 0.48 20.18 0.48 13 C 0.48 5.82 6.3 0 13.48 0 C 20.65 0 26.47 5.82 26.47 13 C 26.47 20.18 20.65 26 13.48 26 Z M 10.12 10.13 C 10.12 10.13 6.69 16.95 6.69 16.95 C 6.69 16.95 10.24 16.95 10.24 16.95 C 10.24 16.95 13.54 16.95 13.54 16.95 C 13.54 16.95 10.12 10.13 10.12 10.13 Z M 16.28 6.79 C 16.28 6.79 13.68 11.98 13.68 11.98 C 13.68 11.98 16.22 16.95 16.22 16.95 C 16.22 16.95 21.39 16.95 21.39 16.95 C 21.39 16.95 16.28 6.79 16.28 6.79 Z" />
</svg>