<?xml version="1.0" encoding="utf-8"?>
<!-- Generator: Avocode 2.3.2-ea60620 - http://avocode.com -->
<svg height="47" width="47" xmlns:xlink="http://www.w3.org/1999/xlink" xmlns="http://www.w3.org/2000/svg" viewBox="0 0 47 47">
    <path fill="#ffffff" fill-rule="evenodd" d="M 23.13 0.45 C 35.81 0.45 46.12 10.76 46.12 23.44 C 46.12 36.12 35.81 46.44 23.13 46.44 C 10.44 46.44 0.13 36.12 0.13 23.44 C 0.13 10.76 10.44 0.45 23.13 0.45 Z M 23.13 44.95 C 34.99 44.95 44.64 35.3 44.64 23.44 C 44.64 11.58 34.99 1.93 23.13 1.93 C 11.51 1.93 2.02 11.18 1.63 22.7 C 1.63 22.7 25.7 22.65 25.7 22.65 C 25.7 22.65 21.52 18.48 21.52 18.48 C 21.52 18.48 22.57 17.43 22.57 17.43 C 22.57 17.43 28.53 23.39 28.53 23.39 C 28.53 23.39 22.46 29.46 22.46 29.46 C 22.46 29.46 21.41 28.41 21.41 28.41 C 21.41 28.41 25.69 24.14 25.69 24.14 C 25.69 24.14 1.63 24.18 1.63 24.18 C 2.02 35.7 11.51 44.95 23.13 44.95 Z" />
</svg>