<?xml version="1.0" encoding="utf-8"?>
<!-- Generator: Avocode 2.3.2-ea60620 - http://avocode.com -->
<svg height="9" width="15" xmlns:xlink="http://www.w3.org/1999/xlink" xmlns="http://www.w3.org/2000/svg" viewBox="0 0 15 9">
    <path fill="#242526" fill-rule="evenodd" d="M 6.6 8.49 C 6.6 8.49 0.6 2.45 0.6 2.45 C 0.21 2.07 0.21 1.44 0.6 1.06 C 0.98 0.67 1.6 0.67 1.98 1.06 C 1.98 1.06 7.29 6.41 7.29 6.41 C 7.29 6.41 12.6 1.06 12.6 1.06 C 12.99 0.67 13.6 0.67 13.99 1.06 C 14.37 1.44 14.37 2.07 13.99 2.45 C 13.99 2.45 7.98 8.49 7.98 8.49 C 7.79 8.68 7.54 8.78 7.29 8.78 C 7.04 8.78 6.79 8.68 6.6 8.49 Z" />
</svg>