<?xml version="1.0" encoding="utf-8"?>
<!-- Generator: Avocode 2.3.2-ea60620 - http://avocode.com -->
<svg height="17" width="13" xmlns:xlink="http://www.w3.org/1999/xlink" xmlns="http://www.w3.org/2000/svg" viewBox="0 0 13 17">
    <path fill="#242526" fill-rule="evenodd" d="M 10.88 9.47 C 11.32 11.68 13.02 12.24 13.02 12.24 C 13.02 12.24 12.11 14.7 11.09 15.56 C 10.08 16.42 9.78 16.65 8.9 16.4 C 8.02 16.15 7.47 15.69 6.57 15.83 C 5.67 15.96 4.93 16.51 4.18 16.49 C 3.44 16.48 2.39 15.81 1.36 14.03 C 0.33 12.26 -0.21 9.97 0.04 8.17 C 0.29 6.38 1.66 4.87 2.96 4.54 C 4.85 4.06 5.58 5.11 6.57 5.11 C 6.57 5.11 6.91 5.11 7.6 4.83 C 8.29 4.54 8.97 4.16 10.35 4.47 C 11.73 4.77 12.54 5.96 12.54 5.96 C 12.54 5.96 10.44 7.25 10.88 9.47 Z M 6.53 4.16 C 6.53 4.16 6.38 2.65 7.29 1.7 C 8.21 0.74 9.58 0.5 9.58 0.5 C 9.58 0.5 9.91 2.04 8.93 3.03 C 7.96 4.03 6.53 4.16 6.53 4.16 Z" />
</svg>