<?xml version="1.0" encoding="utf-8"?>
<!-- Generator: Avocode 2.3.2-ea60620 - http://avocode.com -->
<svg height="12" width="20" xmlns:xlink="http://www.w3.org/1999/xlink" xmlns="http://www.w3.org/2000/svg" viewBox="0 0 20 12">
    <path fill="#ffffff" fill-rule="evenodd" d="M 19 7 C 19 7 1 7 1 7 C 0.45 7 0 6.55 0 6 C 0 5.45 0.45 5 1 5 C 1 5 19 5 19 5 C 19.55 5 20 5.45 20 6 C 20 6.55 19.55 7 19 7 Z M 19 2 C 19 2 1 2 1 2 C 0.45 2 0 1.55 0 1 C 0 0.45 0.45 0 1 0 C 1 0 19 0 19 0 C 19.55 0 20 0.45 20 1 C 20 1.55 19.55 2 19 2 Z M 1 10 C 1 10 19 10 19 10 C 19.55 10 20 10.45 20 11 C 20 11.55 19.55 12 19 12 C 19 12 1 12 1 12 C 0.45 12 0 11.55 0 11 C 0 10.45 0.45 10 1 10 Z" />
</svg>