<?xml version="1.0" encoding="utf-8"?>
<!-- Generator: Adobe Illustrator 16.0.0, SVG Export Plug-In . SVG Version: 6.00 Build 0)  -->
<!DOCTYPE svg PUBLIC "-//W3C//DTD SVG 1.1//EN" "http://www.w3.org/Graphics/SVG/1.1/DTD/svg11.dtd">
<svg version="1.1" id="XMLID_1_" xmlns="http://www.w3.org/2000/svg" xmlns:xlink="http://www.w3.org/1999/xlink" x="0px" y="0px"
	 width="16px" height="19px" viewBox="0 0 16 19" enable-background="new 0 0 16 19" xml:space="preserve">
<path id="downlds" fill="#FFFFFF" d="M4.1484,9.7969c0,0.2456,0.0996,0.4688,0.2598,0.6294l2.9629,2.9692
	C7.5322,13.5566,7.7549,13.6562,8,13.6562s0.4678-0.0996,0.6279-0.2607l2.9639-2.9692c0.1602-0.1606,0.2598-0.3838,0.2598-0.6294
	c0-0.4917-0.3975-0.8906-0.8887-0.8906c-0.2451,0-0.4678,0.0996-0.6289,0.2607l-1.4453,1.4482V0.8906C8.8887,0.3989,8.4912,0,8,0
	S7.1113,0.3989,7.1113,0.8906v9.7246L5.665,9.1675C5.5049,9.0059,5.2822,8.9062,5.0371,8.9062
	C4.5459,8.9062,4.1484,9.3052,4.1484,9.7969z M14.8145,4.1562h-3.2588c-0.4912,0-0.8887,0.3989-0.8887,0.8906
	s0.3975,0.8906,0.8887,0.8906h2.667v11.2812H1.7773V5.9375h2.667c0.4912,0,0.8887-0.3989,0.8887-0.8906S4.9355,4.1562,4.4443,4.1562
	H1.1855C0.5312,4.1562,0,4.6895,0,5.3438v12.4688C0,18.4668,0.5312,19,1.1855,19h13.6289C15.4688,19,16,18.4668,16,17.8125V5.3438
	C16,4.6895,15.4688,4.1562,14.8145,4.1562z"/>
</svg>
