<?xml version="1.0" encoding="utf-8"?>
<!-- Generator: Adobe Illustrator 16.0.0, SVG Export Plug-In . SVG Version: 6.00 Build 0)  -->
<!DOCTYPE svg PUBLIC "-//W3C//DTD SVG 1.1//EN" "http://www.w3.org/Graphics/SVG/1.1/DTD/svg11.dtd">
<svg version="1.1" id="XMLID_2_" xmlns="http://www.w3.org/2000/svg" xmlns:xlink="http://www.w3.org/1999/xlink" x="0px" y="0px"
	 width="20px" height="18.4678px" viewBox="0 0 20 18.4678" enable-background="new 0 0 20 18.4678" xml:space="preserve">
<path id="oblacha" fill="#FFFFFF" d="M15.8408,7.3389c-0.1543,0.6543-0.4219,1.2744-0.7803,1.8496C16.7754,9.6123,18,10.709,18,12
	c0,1.6562-2.0146,3-4.5,3c-2.0371,0-3.7549-0.9023-4.3105-2.1406C8.6436,12.9512,8.0781,13,7.5,13
	c-0.1211,0-0.2393-0.0117-0.3604-0.0156C7.4922,14.334,8.543,15.4893,10,16.209V18c0,0.5508,0.248,0.627,0.5557,0.168L11.5,16.7559
	C12.1309,16.9121,12.8018,17,13.5,17c3.5898,0,6.5-2.2393,6.5-5C20,9.875,18.2725,8.0625,15.8408,7.3389z M15,6
	c0-3.3135-3.3574-6-7.5-6S0,2.6865,0,6c0,2.3018,1.6221,4.2988,4,5.3047V14c0,0.5508,0.2695,0.6426,0.6006,0.2002l1.7168-2.2822
	C6.7031,11.9668,7.0967,12,7.5,12C11.6426,12,15,9.3135,15,6z M2,6c0-2.209,2.4629-4,5.5-4S13,3.791,13,6s-2.4629,4-5.5,4
	S2,8.209,2,6z"/>
</svg>
