<?xml version="1.0" encoding="UTF-8" standalone="no"?>
<svg width="16px" height="16px" viewBox="0 0 16 16" version="1.1" xmlns="http://www.w3.org/2000/svg" xmlns:xlink="http://www.w3.org/1999/xlink" xmlns:sketch="http://www.bohemiancoding.com/sketch/ns">
    <!-- Generator: Sketch 3.5.2 (25235) - http://www.bohemiancoding.com/sketch -->
    <title>Shape</title>
    <desc>Created with Sketch.</desc>
    <defs></defs>
    <g id="Page-1" stroke="none" stroke-width="1" fill="none" fill-rule="evenodd" sketch:type="MSPage">
        <path d="M6.58578644,8 L0.928932188,13.6568542 C0.540023458,14.045763 0.540023458,14.6821591 0.928932188,15.0710678 C1.31784092,15.4599765 1.95423702,15.4599765 2.34314575,15.0710678 L8,9.41421356 L13.6568542,15.0710678 C14.045763,15.4599765 14.6821591,15.4599765 15.0710678,15.0710678 C15.4599765,14.6821591 15.4599765,14.045763 15.0710678,13.6568542 L9.41421356,8 L15.0710678,2.34314575 C15.4599765,1.95423702 15.4599765,1.31784092 15.0710678,0.928932188 C14.6821591,0.540023458 14.045763,0.540023458 13.6568542,0.928932188 L8,6.58578644 L2.34314575,0.928932188 C1.95423702,0.540023458 1.31784092,0.540023458 0.928932188,0.928932188 C0.540023458,1.31784092 0.540023458,1.95423702 0.928932188,2.34314575 L6.58578644,8 Z" id="Shape" fill="#FFFFFF" sketch:type="MSShapeGroup"></path>
    </g>
</svg>