<?xml version="1.0" encoding="utf-8"?>
<!-- Generator: Adobe Illustrator 16.0.0, SVG Export Plug-In . SVG Version: 6.00 Build 0)  -->
<!DOCTYPE svg PUBLIC "-//W3C//DTD SVG 1.1//EN" "http://www.w3.org/Graphics/SVG/1.1/DTD/svg11.dtd">
<svg version="1.1" id="XMLID_1_" xmlns="http://www.w3.org/2000/svg" xmlns:xlink="http://www.w3.org/1999/xlink" x="0px" y="0px"
	 width="12.0088px" height="10.999px" viewBox="0 0 12.0088 10.999" enable-background="new 0 0 12.0088 10.999"
	 xml:space="preserve">
<path id="acrt" fill="#FFFFFF" d="M11.9443,3.6484L10.6689,6.957C10.4941,7.4102,9.998,7.7393,9.4912,7.7393H4.4248
	c-0.542,0-1.0342-0.3799-1.1445-0.8857L2.0469,1.2227H0V0h2.1406c0.542,0,1.0342,0.3804,1.1445,0.8848L3.627,2.4443h7.4346
	c0.3242,0,0.6113,0.1362,0.7852,0.373C12.0205,3.0552,12.0566,3.3584,11.9443,3.6484z M3.8945,3.6665l0.624,2.8511h4.9727
	l1.0811-2.8511H3.8945z M4.8525,8.5547c0.708,0,1.2842,0.5488,1.2842,1.2227S5.5605,10.999,4.8525,10.999
	s-1.2842-0.5479-1.2842-1.2217S4.1445,8.5547,4.8525,8.5547z M9.3486,8.5547c0.708,0,1.2842,0.5488,1.2842,1.2227
	s-0.5762,1.2217-1.2842,1.2217c-0.709,0-1.2842-0.5479-1.2842-1.2217S8.6396,8.5547,9.3486,8.5547z"/>
</svg>
