<?xml version="1.0" encoding="utf-8"?>
<!-- Generator: Adobe Illustrator 17.1.0, SVG Export Plug-In . SVG Version: 6.00 Build 0)  -->
<!DOCTYPE svg PUBLIC "-//W3C//DTD SVG 1.1//EN" "http://www.w3.org/Graphics/SVG/1.1/DTD/svg11.dtd">
<svg version="1.1" id="Layer_1" xmlns="http://www.w3.org/2000/svg" xmlns:xlink="http://www.w3.org/1999/xlink" x="0px" y="0px"
	 viewBox="0 0 20 19.9993916" enable-background="new 0 0 20 19.9993916" xml:space="preserve">
<path fill="#242526" d="M16.5893002,18.01017c-0.3640003,0-0.7273998-0.1387005-1.0051003-0.4162006l-5.5845003-5.5845995L4.4157,17.5939693
	c-0.5553999,0.5550003-1.4545999,0.5550003-2.01,0c-0.5553-0.5544987-0.5553-1.4548988,0-2.009799l5.5839996-5.5846004
	L2.4057,4.4153705c-0.5553-0.5544999-0.5553-1.4547999,0-2.0098c0.5554001-0.5553999,1.4546001-0.5549999,2.01,0l5.5839996,5.5846
	l5.5845003-5.5846c0.5554008-0.5549999,1.4547005-0.5549999,2.0100994,0c0.5552998,0.5550001,0.5552998,1.4553001,0,2.0098
	l-5.5840998,5.5841994l5.5840998,5.5846004c0.5552998,0.5549002,0.5552998,1.4553003,0,2.009799
	C17.3171005,17.8714695,16.9531994,18.01017,16.5893002,18.01017z"/>
</svg>
