<?xml version="1.0" encoding="utf-8"?>
<!-- Generator: Adobe Illustrator 16.0.0, SVG Export Plug-In . SVG Version: 6.00 Build 0)  -->
<!DOCTYPE svg PUBLIC "-//W3C//DTD SVG 1.1//EN" "http://www.w3.org/Graphics/SVG/1.1/DTD/svg11.dtd">
<svg version="1.1" id="XMLID_2_" xmlns="http://www.w3.org/2000/svg" xmlns:xlink="http://www.w3.org/1999/xlink" x="0px" y="0px"
	 width="18px" height="18px" viewBox="0 0 18 18" enable-background="new 0 0 18 18" xml:space="preserve">
<path id="case" fill="#FFFFFF" d="M15.75,4.5H13.5V2.25C13.5,1.0073,12.4922,0,11.25,0h-4.5C5.5078,0,4.5,1.0073,4.5,2.25V4.5H2.25
	C1.0078,4.5,0,5.5073,0,6.75v9C0,16.9922,1.0078,18,2.25,18h13.5c1.2422,0,2.25-1.0078,2.25-2.25v-9
	C18,5.5073,16.9922,4.5,15.75,4.5z M6.75,2.25h4.5V4.5h-4.5V2.25z M2.25,6.75h13.5v3.6562h-4.6172
	C10.7949,9.5566,9.9688,8.9521,9,8.9521s-1.7949,0.6045-2.1328,1.4541H2.25V6.75z M9.8916,11.25
	c0,0.4922-0.3994,0.8916-0.8916,0.8916c-0.4912,0-0.8906-0.3994-0.8906-0.8916S8.5088,10.3584,9,10.3584
	C9.4922,10.3584,9.8916,10.7578,9.8916,11.25z M2.25,15.75v-3.6562h4.6172C7.2051,12.9434,8.0312,13.5479,9,13.5479
	s1.7949-0.6045,2.1328-1.4541H15.75V15.75H2.25z"/>
</svg>
