<?xml version="1.0" encoding="utf-8"?>
<!-- Generator: Adobe Illustrator 16.0.0, SVG Export Plug-In . SVG Version: 6.00 Build 0)  -->
<!DOCTYPE svg PUBLIC "-//W3C//DTD SVG 1.1//EN" "http://www.w3.org/Graphics/SVG/1.1/DTD/svg11.dtd">
<svg version="1.1" id="XMLID_1_" xmlns="http://www.w3.org/2000/svg" xmlns:xlink="http://www.w3.org/1999/xlink" x="0px" y="0px"
	 width="24.0254px" height="24.0259px" viewBox="0 0 24.0254 24.0259" enable-background="new 0 0 24.0254 24.0259"
	 xml:space="preserve">
<g id="i--code--blue--outline">
	<g>
		<path fill="#ffffff" d="M22.5498,0H1.4756C0.6611,0,0,0.6621,0,1.4756v21.0747c0,0.8135,0.6611,1.4756,1.4756,1.4756h21.0742
			c0.8135,0,1.4756-0.6621,1.4756-1.4756V1.4756C24.0254,0.6621,23.3633,0,22.5498,0z M22.0205,22.0249H2V9.6987h20.0205V22.0249z
			 M22.0205,7.6978H2V2.0005h20.0205V7.6978z M17.9209,5.8491h0.5645c0.5537,0,1-0.4458,1-0.9995c0-0.5547-0.4463-1.0005-1-1.0005
			h-0.5645c-0.5537,0-1,0.4458-1,1.0005C16.9209,5.4033,17.3721,5.8491,17.9209,5.8491z M13.3066,5.8491h0.5645
			c0.5537,0,1-0.4458,1-0.9995c0-0.5547-0.4463-1.0005-1-1.0005h-0.5645c-0.5537,0-1,0.4458-1,1.0005
			C12.3066,5.4033,12.7529,5.8491,13.3066,5.8491z M9.8896,20.3579c0.6465,0.29,1.1621-0.1172,1.334-0.4756l3.3877-7.1885
			c0.2354-0.5,0.0195-1.0977-0.4805-1.333s-1.0986-0.0244-1.334,0.4805l-3.3828,7.1826
			C9.1738,19.5249,9.3848,20.1323,9.8896,20.3579z M15.2393,19.1177c0.4805,0.417,1.1025,0.1865,1.3184,0l3.124-2.6865
			c0.3623-0.3145,0.3623-0.8242,0-1.1377l-3.124-2.6875c-0.3623-0.314-0.9561-0.314-1.3184,0c-0.3633,0.3135-0.3633,0.8242,0,1.1377
			l2.4609,2.1182L15.2393,17.98C14.876,18.2944,14.876,18.8042,15.2393,19.1177z M7.4668,19.1128
			c0.3633,0.3135,0.957,0.3135,1.3193,0c0.3633-0.3135,0.3633-0.8232,0-1.1377l-2.4609-2.1133l2.4609-2.1182
			c0.3633-0.3135,0.3633-0.8242,0-1.1377c-0.4805-0.4165-1.1035-0.1865-1.3193,0l-3.123,2.6875
			c-0.3682,0.3135-0.3682,0.8184,0,1.1328L7.4668,19.1128z"/>
	</g>
</g>
</svg>
