<svg version="1.1" id="Layer_1" xmlns="http://www.w3.org/2000/svg" xmlns:xlink="http://www.w3.org/1999/xlink" x="0px" y="0px"
	 viewBox="0 0 26 26" enable-background="new 0 0 26 26" xml:space="preserve">
<g>
	<g>
		<path fill="#1b8bf9" d="M17.249939,14.3421631V3.6571655c0-1.6029663-1.3435669-2.9071655-2.9949951-2.9071655H3.7450562
			C2.09375,0.75,0.750061,2.0541992,0.750061,3.6571655v10.6849976C0.750061,15.9456787,2.09375,17.25,3.7450562,17.25h10.5098877
			C15.9063721,17.25,17.249939,15.9456787,17.249939,14.3421631z M3.0985718,14.3421631V3.6571655
			c0-0.3407593,0.2901001-0.6176758,0.6464844-0.6176758h10.5098877c0.3563843,0,0.6464844,0.2769165,0.6464844,0.6176758
			v10.6849976c0,0.3409424-0.2901001,0.6177368-0.6464844,0.6177368H3.7450562
			C3.3886719,14.9598999,3.0985718,14.6831055,3.0985718,14.3421631z M22.2549438,8.75h-2.5957642v2.2894897h2.5957642
			c0.3563843,0,0.6464844,0.2767944,0.6464844,0.6176147v10.6850586c0,0.3409424-0.2901001,0.6177368-0.6464844,0.6177368
			H11.7450562c-0.3563843,0-0.6464233-0.2767944-0.6464233-0.6177368v-2.664978H8.750061v2.664978
			c0,1.6036377,1.343689,2.9078369,2.9949951,2.9078369h10.5098877c1.6513062,0,2.9949951-1.3041992,2.9949951-2.9078369V11.6571045
			C25.249939,10.0541992,23.90625,8.75,22.2549438,8.75z"/>
	</g>
</g>
</svg>
