<?xml version="1.0" encoding="utf-8"?>
<!-- Generator: Avocode 2.3.2-ea60620 - http://avocode.com -->
<svg height="12" width="6" xmlns:xlink="http://www.w3.org/1999/xlink" xmlns="http://www.w3.org/2000/svg" viewBox="0 0 6 12">
    <path fill="#ffffff" fill-rule="evenodd" d="M 3.99 11.99 C 3.99 11.99 1.32 11.99 1.32 11.99 C 1.32 11.99 1.32 6.33 1.32 6.33 C 1.32 6.33 -0.01 6.33 -0.01 6.33 C -0.01 6.33 -0.01 4.15 -0.01 4.15 C -0.01 4.15 1.32 4.15 1.32 4.15 C 1.32 4.15 1.32 2.84 1.32 2.84 C 1.32 1.06 2.08 0 4.21 0 C 4.21 0 5.99 0 5.99 0 C 5.99 0 5.99 2.18 5.99 2.18 C 5.99 2.18 4.88 2.18 4.88 2.18 C 4.05 2.18 3.99 2.49 3.99 3.05 C 3.99 3.05 3.99 4.15 3.99 4.15 C 3.99 4.15 6 4.15 6 4.15 C 6 4.15 5.77 6.33 5.77 6.33 C 5.77 6.33 3.99 6.33 3.99 6.33 C 3.99 6.33 3.99 11.99 3.99 11.99 Z" />
</svg>