<?xml version="1.0" encoding="utf-8"?>
<!-- Generator: Adobe Illustrator 16.0.0, SVG Export Plug-In . SVG Version: 6.00 Build 0)  -->
<!DOCTYPE svg PUBLIC "-//W3C//DTD SVG 1.1//EN" "http://www.w3.org/Graphics/SVG/1.1/DTD/svg11.dtd">
<svg version="1.1" id="XMLID_1_" xmlns="http://www.w3.org/2000/svg" xmlns:xlink="http://www.w3.org/1999/xlink" x="0px" y="0px"
	 width="23.9902px" height="23.9785px" viewBox="0 0 23.9902 23.9785" enable-background="new 0 0 23.9902 23.9785"
	 xml:space="preserve">
<g id="i--gear">
	<path fill="#1b8bf9" d="M23.8389,10.1709c-0.0566-0.375-0.3154-0.6875-0.6719-0.8145l-1.8896-0.6709
		c-0.1123-0.3174-0.2393-0.624-0.3799-0.9229l0.8604-1.8086c0.1621-0.3408,0.124-0.7441-0.1006-1.0488
		c-0.7246-0.9863-1.5908-1.8516-2.5742-2.5723c-0.3057-0.2246-0.708-0.2627-1.0498-0.0996l-1.8086,0.8584
		c-0.2979-0.1406-0.6064-0.2666-0.9229-0.3789l-0.6729-1.8896c-0.127-0.3555-0.4385-0.6133-0.8125-0.6699
		c-1.3281-0.2051-2.3115-0.2051-3.6426,0C9.7998,0.21,9.4883,0.4678,9.3613,0.8232L8.6895,2.7129
		c-0.3174,0.1123-0.626,0.2383-0.9229,0.3789L5.957,2.2334C5.6152,2.0703,5.2119,2.1084,4.9072,2.333
		C3.9238,3.0537,3.0576,3.9189,2.333,4.9053C2.1084,5.21,2.0703,5.6133,2.2324,5.9541l0.8604,1.8086
		C2.9521,8.0605,2.8252,8.3691,2.7129,8.6855L0.8232,9.3584c-0.3564,0.125-0.6152,0.4375-0.6719,0.8125
		C0.0479,10.8477,0,11.4248,0,11.9893s0.0479,1.1426,0.1514,1.8193c0.0566,0.374,0.3154,0.6865,0.6719,0.8135l1.8896,0.6719
		c0.1123,0.3164,0.2393,0.625,0.3799,0.9219l-0.8604,1.8086c-0.1621,0.3418-0.124,0.7451,0.0996,1.0488
		c0.7246,0.9854,1.5908,1.8516,2.5752,2.5742c0.3047,0.2236,0.708,0.2617,1.0498,0.0996l1.8086-0.8594
		c0.2979,0.1406,0.6064,0.2666,0.9229,0.3789l0.6729,1.8887c0.126,0.3555,0.4385,0.6133,0.8125,0.6709
		c0.665,0.1025,1.2598,0.1523,1.8213,0.1523c0.5605,0,1.1562-0.0498,1.8213-0.1523c0.374-0.0576,0.6855-0.3154,0.8125-0.6709
		l0.6719-1.8887c0.3174-0.1123,0.625-0.2383,0.9229-0.3789l1.8096,0.8594c0.3418,0.1621,0.7451,0.123,1.0498-0.0996
		c0.9863-0.7246,1.8525-1.5898,2.5742-2.5742c0.2246-0.3037,0.2627-0.707,0.1006-1.0488l-0.8604-1.8086
		c0.1406-0.2969,0.2676-0.6055,0.3799-0.9219l1.8896-0.6719c0.3564-0.127,0.6152-0.4385,0.6719-0.8135
		c0.1035-0.6768,0.1514-1.2549,0.1514-1.8193S23.9424,10.8477,23.8389,10.1709z M21.8848,12.8965l-1.7734,0.6299
		c-0.3096,0.1104-0.5479,0.3613-0.6416,0.6777c-0.1582,0.5352-0.3672,1.041-0.6201,1.5059
		c-0.1572,0.2891-0.167,0.6348-0.0254,0.9316l0.8037,1.6914c-0.3887,0.4668-0.8184,0.8965-1.2852,1.2842l-1.6914-0.8027
		c-0.2979-0.1426-0.6436-0.1309-0.9326,0.0254c-0.4658,0.2529-0.9727,0.4609-1.5088,0.6201
		c-0.3145,0.0928-0.5664,0.3301-0.6768,0.6406l-0.6309,1.7725c-0.6436,0.0654-1.1709,0.0654-1.8145,0l-0.6309-1.7725
		c-0.1104-0.3086-0.3623-0.5488-0.6768-0.6406c-0.5361-0.1592-1.0439-0.3672-1.5088-0.6201
		c-0.2891-0.1572-0.6357-0.168-0.9326-0.0254l-1.6914,0.8037c-0.4668-0.3887-0.8965-0.8184-1.2852-1.2852l0.8037-1.6914
		c0.1416-0.2969,0.1318-0.6426-0.0254-0.9316c-0.2529-0.4629-0.4609-0.9707-0.6201-1.5068
		c-0.0938-0.3154-0.332-0.5664-0.6416-0.6768l-1.7734-0.6299c-0.0332-0.3223-0.0488-0.6191-0.0488-0.9072
		c0-0.2871,0.0156-0.584,0.0488-0.9062l1.7744-0.6309c0.3086-0.1094,0.5469-0.3613,0.6406-0.6758
		c0.1582-0.5352,0.3672-1.043,0.6201-1.5078c0.1572-0.2881,0.167-0.6357,0.0254-0.9316L4.3623,5.6455
		C4.751,5.1787,5.1807,4.749,5.6475,4.3604L7.3398,5.165c0.2959,0.1426,0.6436,0.1309,0.9326-0.0254
		c0.4648-0.2539,0.9717-0.4609,1.5078-0.6201c0.3145-0.0928,0.5664-0.3311,0.6768-0.6406l0.6309-1.7725
		c0.6377-0.0664,1.165-0.0664,1.8145,0l0.6309,1.7725c0.1104,0.3096,0.3623,0.5479,0.6768,0.6406
		c0.5361,0.1592,1.0439,0.3662,1.5088,0.6201c0.2891,0.1572,0.6348,0.168,0.9326,0.0254l1.6914-0.8047
		c0.4668,0.3887,0.8965,0.8184,1.2852,1.2852l-0.8037,1.6914c-0.1416,0.2969-0.1318,0.6436,0.0254,0.9316
		c0.2539,0.4668,0.4619,0.9727,0.6201,1.5068c0.0938,0.3154,0.332,0.5674,0.6416,0.6768l1.7734,0.6309
		c0.0332,0.3223,0.0498,0.6191,0.0498,0.9062C21.9346,12.2773,21.918,12.5742,21.8848,12.8965z M11.9951,6.9912
		c-2.625,0-4.7598,2.1328-4.7598,4.7568c0,2.623,2.1348,4.7568,4.7598,4.7568s4.7598-2.1338,4.7598-4.7568
		C16.7549,9.124,14.6201,6.9912,11.9951,6.9912z M11.9951,14.4502c-1.4902,0-2.7031-1.2129-2.7031-2.7021
		c0-1.4902,1.2129-2.7021,2.7031-2.7021c1.4912,0,2.7031,1.2119,2.7031,2.7021C14.6982,13.2373,13.4863,14.4502,11.9951,14.4502z"/>
</g>
</svg>
