<?xml version="1.0" encoding="utf-8"?>
<!-- Generator: Avocode 2.3.2-ea60620 - http://avocode.com -->
<svg height="11" width="16" xmlns:xlink="http://www.w3.org/1999/xlink" xmlns="http://www.w3.org/2000/svg" viewBox="0 0 16 11">
    <path fill="#ffffff" fill-rule="evenodd" d="M 14.23 6.05 C 14.23 6.05 14.23 7.79 14.23 7.79 C 14.23 7.79 12.95 7.79 12.95 7.79 C 12.95 7.79 12.95 6.05 12.95 6.05 C 12.95 6.05 11.18 6.05 11.18 6.05 C 11.18 6.05 11.18 4.78 11.18 4.78 C 11.18 4.78 12.95 4.78 12.95 4.78 C 12.95 4.78 12.95 3.04 12.95 3.04 C 12.95 3.04 14.23 3.04 14.23 3.04 C 14.23 3.04 14.23 4.78 14.23 4.78 C 14.23 4.78 16 4.78 16 4.78 C 16 4.78 16 6.05 16 6.05 C 16 6.05 14.23 6.05 14.23 6.05 Z M 5.08 10.67 C 2.27 10.67 0 8.43 0 5.66 C 0 2.9 2.27 0.67 5.08 0.67 C 6.4 0.67 7.6 1.16 8.5 1.98 C 8.5 1.98 7 3.42 7 3.42 C 6.48 2.99 5.81 2.72 5.08 2.72 C 3.42 2.72 2.09 4.04 2.09 5.66 C 2.09 7.29 3.42 8.61 5.08 8.61 C 6.35 8.61 7.44 7.82 7.87 6.71 C 7.87 6.71 5.01 6.71 5.01 6.71 C 5.01 6.71 5.01 4.62 5.01 4.62 C 5.01 4.62 7.87 4.62 7.87 4.62 C 7.87 4.62 10.02 4.62 10.02 4.62 C 10.02 4.62 10.04 4.62 10.04 4.62 C 10.11 4.96 10.15 5.31 10.15 5.66 C 10.15 8.43 7.88 10.67 5.08 10.67 Z" />
</svg>