<?xml version="1.0" encoding="utf-8"?>
<!-- Generator: Adobe Illustrator 16.0.0, SVG Export Plug-In . SVG Version: 6.00 Build 0)  -->
<!DOCTYPE svg PUBLIC "-//W3C//DTD SVG 1.1//EN" "http://www.w3.org/Graphics/SVG/1.1/DTD/svg11.dtd">
<svg version="1.1" id="XMLID_2_" xmlns="http://www.w3.org/2000/svg" xmlns:xlink="http://www.w3.org/1999/xlink" x="0px" y="0px"
	 width="23.4097px" height="24.0215px" viewBox="0 0 23.4097 24.0215" enable-background="new 0 0 23.4097 24.0215"
	 xml:space="preserve">
<path id="i--google_x5F_font" fill="#bcc6d0" d="M13.2046,10.8096v3.0029h7.083c-0.7197,4.2041-4.0811,7.2061-8.2827,7.2061
	c-4.9219,0-9.0034-4.084-9.0034-9.0078c0-4.9243,4.0815-9.0078,9.0034-9.0078c2.52,0,4.6821,1.0811,6.2427,2.7622l2.1602-2.1616
	C18.2476,1.4414,15.3657,0,12.0049,0C5.4023,0,0,5.4048,0,12.0107c0,6.6055,5.4023,12.0107,12.0049,12.0107
	c6.6021,0,11.4048-5.4053,11.4048-12.0107v-1.2012H13.2046z"/>
</svg>
