<?xml version="1.0" encoding="utf-8"?>
<!-- Generator: Adobe Illustrator 16.0.0, SVG Export Plug-In . SVG Version: 6.00 Build 0)  -->
<!DOCTYPE svg PUBLIC "-//W3C//DTD SVG 1.1//EN" "http://www.w3.org/Graphics/SVG/1.1/DTD/svg11.dtd">
<svg version="1.1" id="XMLID_1_" xmlns="http://www.w3.org/2000/svg" xmlns:xlink="http://www.w3.org/1999/xlink" x="0px" y="0px"
	 width="24.7002px" height="22.9258px" viewBox="0 0 24.7002 22.9258" enable-background="new 0 0 24.7002 22.9258"
	 xml:space="preserve">
<path id="i--heart--blue--outline" fill="#1b8bf9" d="M23.9004,4.0322c-0.6445-1.21-1.6143-2.2275-2.8066-2.9434
	c-1.71-1.0264-3.7842-1.3398-5.6875-0.8857c-0.5596,0.1328-1.1064,0.3311-1.626,0.5898c-0.5107,0.2539-0.9922,0.5674-1.4365,0.9316
	c-0.4443-0.3652-0.9258-0.6777-1.4365-0.9326c-0.5176-0.2578-1.0645-0.4561-1.626-0.5889C7.3174-0.2646,5.1846,0.083,3.458,1.1934
	C2.2598,1.9648,1.3008,3.0527,0.6855,4.3389c-0.7041,1.4717-0.8662,3.1006-0.4834,4.8398c0.2627,1.1904,0.7695,2.4229,1.5967,3.8779
	c1.1602,2.043,2.751,3.9883,4.7285,5.7832l0.7148,0.6582c1.0723,0.9922,2.2881,2.1172,3.5977,2.9785
	c0.4482,0.2939,0.9688,0.4492,1.5059,0.4492c0.5205,0,1.0293-0.1465,1.4697-0.4238c2.2266-1.4014,4.2627-3.1621,6.0518-5.2324
	c1.8408-2.1299,3.8213-4.7051,4.5488-7.6514c0.1611-0.6543,0.2549-1.3047,0.2783-1.9326
	C24.7451,6.3428,24.4775,5.1143,23.9004,4.0322z M22.2266,7.5938c-0.0166,0.4551-0.0869,0.9365-0.209,1.4316
	c-0.6016,2.4395-2.3691,4.7207-4.0186,6.6299c-1.6299,1.8848-3.4805,3.4863-5.5,4.7578c-0.0908,0.0566-0.2139,0.0576-0.3018,0
	c-1.1367-0.748-2.2236-1.7529-3.2744-2.7246c-0.249-0.2305-0.4941-0.457-0.7354-0.6758c-1.7832-1.6201-3.21-3.3613-4.2412-5.1758
	C2.9082,10.0088,1.8516,7.625,2.9141,5.4043c0.8545-1.7852,2.6592-2.9385,4.5986-2.9385c1.5947,0,3.0732,0.7207,4.0566,1.9775
	c0.377,0.4814,1.1738,0.4805,1.5488,0c0.9844-1.2568,2.4639-1.9775,4.0576-1.9775c1.877,0,3.6611,1.0703,4.5459,2.7275
	C22.0898,5.8857,22.2598,6.6934,22.2266,7.5938z"/>
</svg>
