<?xml version="1.0" encoding="utf-8"?>
<!-- Generator: Adobe Illustrator 16.0.0, SVG Export Plug-In . SVG Version: 6.00 Build 0)  -->
<!DOCTYPE svg PUBLIC "-//W3C//DTD SVG 1.1//EN" "http://www.w3.org/Graphics/SVG/1.1/DTD/svg11.dtd">
<svg version="1.1" id="XMLID_1_" xmlns="http://www.w3.org/2000/svg" xmlns:xlink="http://www.w3.org/1999/xlink" x="0px" y="0px"
	 width="24.0127px" height="24.0122px" viewBox="0 0 24.0127 24.0122" enable-background="new 0 0 24.0127 24.0122"
	 xml:space="preserve">
<g id="i--infinity">
	<g>
		<path fill="#FFFFFF" d="M12.0068,0C5.376,0,0,5.375,0,12.0063c0,6.6309,5.376,12.0059,12.0068,12.0059
			s12.0059-5.375,12.0059-12.0059C24.0127,5.375,18.6377,0,12.0068,0z M12.0068,22.1372c-5.5947,0-10.1309-4.5352-10.1309-10.1309
			c0-5.5952,4.5361-10.1304,10.1309-10.1304s10.1309,4.5352,10.1309,10.1304C22.1377,17.6021,17.6016,22.1372,12.0068,22.1372z
			 M17.2559,9.8584c-0.2393-0.2646-0.5342-0.4741-0.8828-0.6265c-0.3496-0.1509-0.7441-0.2271-1.1816-0.2271
			c-0.3486,0-0.6729,0.0547-0.9736,0.1626c-0.2998,0.1094-0.5781,0.252-0.834,0.4316c-0.2568,0.1782-0.498,0.3877-0.7217,0.6265
			c-0.2246,0.2373-0.4404,0.4819-0.6465,0.7314c-0.2197-0.2607-0.4395-0.5073-0.6641-0.7402
			c-0.2236-0.2329-0.4648-0.4395-0.7207-0.6177c-0.2568-0.1797-0.5352-0.3223-0.8359-0.4316
			C9.4951,9.0596,9.165,9.0049,8.8047,9.0049c-0.4375,0-0.8301,0.0791-1.1807,0.2358C7.2754,9.3984,6.9795,9.6099,6.7402,9.8755
			C6.5,10.1406,6.3174,10.4556,6.1924,10.8193c-0.127,0.3633-0.1885,0.7563-0.1885,1.1782c0,0.4243,0.0654,0.8193,0.1963,1.1885
			c0.1299,0.3691,0.3223,0.6855,0.5732,0.9512c0.251,0.2676,0.5518,0.4785,0.9014,0.6348c0.3486,0.1582,0.7471,0.2363,1.1953,0.2363
			c0.3604,0,0.6846-0.0537,0.9746-0.1562c0.2891-0.1016,0.5576-0.2363,0.8027-0.4053s0.4766-0.3623,0.6953-0.585
			s0.4424-0.4551,0.6729-0.6914c0.2061,0.2363,0.4248,0.4688,0.6553,0.6914c0.2285,0.2227,0.4707,0.416,0.7275,0.585
			s0.5332,0.3037,0.8291,0.4053c0.2949,0.1025,0.6104,0.1562,0.9492,0.1562c0.4346,0,0.833-0.0781,1.1855-0.2363
			c0.3555-0.1562,0.6543-0.375,0.8936-0.6484c0.2412-0.2793,0.4268-0.5996,0.5576-0.9707c0.1328-0.3662,0.1963-0.7656,0.1963-1.1875
			c0-0.4229-0.0635-0.8125-0.1963-1.1709C17.6826,10.4365,17.4971,10.1245,17.2559,9.8584z M10.5898,12.5103
			c-0.1631,0.1592-0.3389,0.2998-0.5244,0.4238c-0.1855,0.123-0.3828,0.2285-0.5889,0.3086c-0.208,0.084-0.416,0.1211-0.6221,0.1211
			c-0.4043,0-0.7217-0.123-0.9512-0.373c-0.2285-0.25-0.3438-0.5688-0.3438-0.9595c0-0.3584,0.1113-0.6807,0.335-0.9688
			c0.2236-0.2871,0.5273-0.4312,0.9102-0.4312c0.207,0,0.4141,0.0469,0.623,0.1387c0.207,0.0918,0.4062,0.209,0.5967,0.3496
			c0.1914,0.1406,0.374,0.2959,0.5488,0.4629c0.1758,0.1689,0.3281,0.3232,0.459,0.4644
			C10.9014,12.1982,10.7539,12.353,10.5898,12.5103z M16.1416,12.9751c-0.2168,0.2588-0.5303,0.3887-0.9326,0.3887
			c-0.2305,0-0.4443-0.0371-0.6475-0.1123c-0.2021-0.0771-0.3955-0.1768-0.5801-0.2998c-0.1855-0.127-0.3633-0.2676-0.5273-0.4229
			c-0.1631-0.1592-0.3164-0.3203-0.4561-0.4819c0.1299-0.1411,0.2783-0.2954,0.4424-0.4644c0.1641-0.167,0.335-0.3223,0.5156-0.4629
			c0.1777-0.1406,0.3711-0.2578,0.5732-0.3496c0.2031-0.0913,0.4131-0.1382,0.6299-0.1382c0.4053,0,0.7236,0.1348,0.958,0.4067
			c0.2344,0.2715,0.3525,0.5957,0.3525,0.9766C16.4697,12.3945,16.3623,12.7153,16.1416,12.9751z"/>
	</g>
</g>
</svg>
