<?xml version="1.0" encoding="utf-8"?>
<!-- Generator: Adobe Illustrator 16.0.0, SVG Export Plug-In . SVG Version: 6.00 Build 0)  -->
<!DOCTYPE svg PUBLIC "-//W3C//DTD SVG 1.1//EN" "http://www.w3.org/Graphics/SVG/1.1/DTD/svg11.dtd">
<svg version="1.1" id="XMLID_2_" xmlns="http://www.w3.org/2000/svg" xmlns:xlink="http://www.w3.org/1999/xlink" x="0px" y="0px"
	 width="10.666px" height="9.998px" viewBox="0 0 10.666 9.998" enable-background="new 0 0 10.666 9.998" xml:space="preserve">
<g id="in">
	<g>
		<path fill-rule="evenodd" clip-rule="evenodd" fill="#242526" d="M1.293,0C0.5107,0,0,0.5039,0,1.166
			c0,0.6465,0.4951,1.1641,1.2627,1.1641h0.0146c0.7979,0,1.293-0.5176,1.293-1.1641C2.5566,0.5039,2.0752,0,1.293,0z M0.1348,9.998
			h2.2852V3.252H0.1348V9.998z M8.0332,3.0938c-1.2139,0-1.7568,0.6543-2.0605,1.1143v0.0225H5.957
			C5.9619,4.2236,5.9678,4.2148,5.9727,4.208V3.252H3.6865c0.0303,0.6328,0,6.7461,0,6.7461h2.2861V6.2305
			c0-0.2012,0.0137-0.4033,0.0762-0.5469c0.1641-0.4043,0.541-0.8203,1.1719-0.8203c0.8271,0,1.1582,0.6191,1.1582,1.5264V9.998
			h2.2871V6.1299C10.666,4.0576,9.5371,3.0938,8.0332,3.0938z"/>
	</g>
</g>
</svg>
