<?xml version="1.0" encoding="utf-8"?>
<!-- Generator: Adobe Illustrator 16.0.0, SVG Export Plug-In . SVG Version: 6.00 Build 0)  -->
<!DOCTYPE svg PUBLIC "-//W3C//DTD SVG 1.1//EN" "http://www.w3.org/Graphics/SVG/1.1/DTD/svg11.dtd">
<svg version="1.1" id="XMLID_2_" xmlns="http://www.w3.org/2000/svg" xmlns:xlink="http://www.w3.org/1999/xlink" x="0px" y="0px"
	 width="24.2046px" height="24.0254px" viewBox="0 0 24.2046 24.0254" enable-background="new 0 0 24.2046 24.0254"
	 xml:space="preserve">
<path id="i--leaf" fill="#1b8bf9" d="M21.8501,0c-0.2686,0-0.5342,0.0459-0.79,0.1367c-0.877,0.3115-2.71,0.8545-5.1279,0.9956
	c-1.2256,0.0718-2.4277,0.1504-3.6514,0.3291c-1.4482,0.2119-2.6943,0.5347-3.8086,0.9878C5.917,3.4873,3.9155,5.4253,2.6841,8.0542
	c-0.5659,1.2075-0.9238,2.5273-1.0361,3.8174c-0.123,1.4126,0.0366,2.7661,0.4751,4.0249l0.4546,1.4893
	c-0.6689,0.8105-1.3628,1.6934-2.1011,2.6699c-0.4658,0.6172-0.6001,1.4238-0.3589,2.1582
	c0.2407,0.7334,0.8271,1.3027,1.5674,1.5234l0.6406,0.1895c0.2183,0.0654,0.4443,0.0986,0.6714,0.0986
	c0.395,0,0.7876-0.1006,1.1343-0.291c0.353-0.1943,0.6528-0.4775,0.8657-0.8193c0.2632-0.4238,0.8452-1.3311,1.4678-2.1318
	c0.0747,0.041,0.1377,0.0742,0.1807,0.0947c0.5625,0.2598,1.1616,0.4648,1.7803,0.6074c0.7188,0.167,1.4702,0.252,2.2329,0.252
	c0.5083,0,1.0259-0.0381,1.5381-0.1133c1.126-0.1621,2.2383-0.5059,3.3057-1.0186c1.0293-0.4951,1.9873-1.1328,2.8447-1.8955
	c0.1523-0.1357,0.3037-0.2783,0.4482-0.4238c0.7109-0.7148,1.3193-1.5371,1.8604-2.5137c0.4336-0.7803,0.8125-1.6367,1.1953-2.6953
	c0.5439-1.5073,1-3.1084,1.3926-4.8945c0.3252-1.4805,0.6074-3.0928,0.8623-4.9292c0.0322-0.2358,0.0566-0.417,0.0791-0.5889
	c0.0879-0.6729-0.1172-1.3511-0.5645-1.8604C23.1724,0.2935,22.5269,0,21.8501,0z M22.4634,2.4395
	c-0.0254,0.1919-0.0508,0.3838-0.0781,0.5757c-0.4434,3.2002-1.0674,6.4268-2.167,9.4717
	c-1.5332,4.2446-5.2197,7.7583-9.9805,7.5015c-0.9849-0.0537-1.9658-0.2715-2.8623-0.6865
	c-0.0674-0.0312-0.5029-0.2852-0.8423-0.4893c-0.0991-0.0596-0.2095-0.0889-0.3188-0.0889c-0.1689,0-0.3364,0.0693-0.457,0.2012
	c-0.8887,0.9717-1.8071,2.3857-2.2339,3.0713c-0.1157,0.1855-0.3164,0.292-0.5264,0.292c-0.0586,0-0.1182-0.0078-0.1768-0.0254
	l-0.6406-0.1904c-0.415-0.124-0.5791-0.624-0.3179-0.9697c1.4697-1.9453,2.8193-3.5918,4.2354-5.0938
	c0.2847-0.2822,0.5957-0.5781,0.9331-0.8809c1.1479-1.0322,2.3604-1.9375,3.603-2.6909c1.5439-0.9365,3.1387-1.6387,4.7393-2.0879
	c0.4619-0.1294,0.7314-0.6089,0.6016-1.0708s-0.6094-0.731-1.0703-0.6016c-1.7529,0.4917-3.4922,1.2573-5.1704,2.2749
	c-1.335,0.8096-2.6353,1.7798-3.8638,2.8843c-0.7295,0.6553-1.3457,1.2783-1.8408,1.8154c-0.001,0.001-0.2773-0.6465-0.291-0.6885
	c-1.3569-4.147,1.1338-8.9297,4.9883-10.73c2.2676-1.0591,4.8467-1.2231,7.3076-1.3667c2.5615-0.1494,4.5244-0.7085,5.6074-1.0928
	c0.0703-0.0249,0.1406-0.0361,0.209-0.0361C22.2085,1.7373,22.5142,2.0537,22.4634,2.4395z"/>
</svg>
