<?xml version="1.0" encoding="utf-8"?>
<!-- Generator: Adobe Illustrator 16.0.0, SVG Export Plug-In . SVG Version: 6.00 Build 0)  -->
<!DOCTYPE svg PUBLIC "-//W3C//DTD SVG 1.1//EN" "http://www.w3.org/Graphics/SVG/1.1/DTD/svg11.dtd">
<svg version="1.1" id="XMLID_1_" xmlns="http://www.w3.org/2000/svg" xmlns:xlink="http://www.w3.org/1999/xlink" x="0px" y="0px"
	 width="24.4985px" height="24.5049px" viewBox="0 0 24.4985 24.5049" enable-background="new 0 0 24.4985 24.5049"
	 xml:space="preserve">
<g id="i--magnifier--blue--outline">
	<g>
		<path fill="#bcc6d0" d="M24.1245,22.3223l-3.7285-3.7285c3.5957-4.5039,3.2432-11.1475-0.8496-15.2393
			C17.3843,1.1914,14.5083,0,11.4478,0C8.3882,0,5.5122,1.1914,3.3491,3.3545c-4.4658,4.4658-4.4658,11.7314,0,16.1973
			c2.1641,2.1641,5.04,3.3555,8.0986,3.3555c2.6348,0,5.0986-0.8652,7.1416-2.5039l3.7275,3.7275
			c0.2402,0.2412,0.5615,0.374,0.9043,0.374s0.6631-0.1328,0.9033-0.374C24.6235,23.6318,24.6235,22.8213,24.1245,22.3223z
			 M17.7388,17.7432c-1.6807,1.6807-3.915,2.6064-6.291,2.6064s-4.6104-0.9258-6.29-2.6064c-3.4688-3.4678-3.4688-9.1113,0-12.5801
			c1.6797-1.6797,3.9131-2.6055,6.29-2.6055s4.6113,0.9258,6.291,2.6055C21.2065,8.6318,21.2065,14.2754,17.7388,17.7432z"/>
	</g>
</g>
</svg>
