<svg id="SvgjsSvg1000" xmlns="http://www.w3.org/2000/svg" version="1.1" xmlns:xlink="http://www.w3.org/1999/xlink" xmlns:svgjs="http://svgjs.com/svgjs" width="20" height="25"><defs id="SvgjsDefs1001"></defs><path id="SvgjsPath1007" d="M835.509 384.73C834.996 384.73 834.51 384.56800000000004 834.1030000000001 384.261C829.8430000000001 381.12800000000004 826.8620000000001 376.565 825.7180000000001 371.418C825.71 371.384 825.705 371.349 825.7020000000001 371.314C825.5650000000002 370.648 825.4950000000001 369.96200000000005 825.4950000000001 369.276C825.4950000000001 363.759 829.9830000000002 359.27 835.4990000000001 359.27C841.0160000000002 359.27 845.5050000000001 363.75899999999996 845.5050000000001 369.27599999999995C845.5050000000001 370.008 845.4260000000002 370.734 845.2710000000001 371.43399999999997C845.268 371.46799999999996 845.263 371.50199999999995 845.2550000000001 371.53499999999997C844.1100000000001 376.561 841.1950000000002 381.04099999999994 837.0480000000001 384.15L836.7390000000001 384.37699999999995C836.7170000000001 384.393 836.6940000000002 384.40799999999996 836.6700000000002 384.42199999999997C836.3170000000002 384.623 835.9160000000002 384.72999999999996 835.5090000000002 384.72999999999996ZM839.782 369.275C839.782 366.914 837.861 364.993 835.499 364.993C833.139 364.993 831.2180000000001 366.914 831.2180000000001 369.275C831.2180000000001 371.63599999999997 833.1390000000001 373.55699999999996 835.499 373.55699999999996C837.861 373.55699999999996 839.782 371.63599999999997 839.782 369.275Z " fill="#1b8bf9" transform="matrix(1,0,0,1,-825,-359)"></path></svg>