<?xml version="1.0" encoding="utf-8"?>
<!-- Generator: Adobe Illustrator 16.0.0, SVG Export Plug-In . SVG Version: 6.00 Build 0)  -->
<!DOCTYPE svg PUBLIC "-//W3C//DTD SVG 1.1//EN" "http://www.w3.org/Graphics/SVG/1.1/DTD/svg11.dtd">
<svg version="1.1" id="XMLID_2_" xmlns="http://www.w3.org/2000/svg" xmlns:xlink="http://www.w3.org/1999/xlink" x="0px" y="0px"
	 width="14px" height="14px" viewBox="0 0 14 14" enable-background="new 0 0 14 14" xml:space="preserve">
<path id="i--magnifier" fill="#FFFFFF" d="M9.541,5.7329c0,2.083-1.7041,3.7778-3.8008,3.7778S1.9248,7.8159,1.9248,5.7329
	c0-2.0981,1.7051-3.7949,3.8154-3.7949C7.8369,1.938,9.541,3.6489,9.541,5.7329L9.541,5.7329z M10.4346,8.9414
	c0.6455-0.9312,0.9893-2.0703,0.9893-3.2085C11.4238,2.5933,8.8994,0,5.7402,0S0,2.5933,0,5.7329
	c0,3.1382,2.5811,5.6733,5.7402,5.6733c1.1465,0,2.293-0.3594,3.2432-0.9961L12.5137,14L14,12.5039L10.4346,8.9414L10.4346,8.9414z"
	/>
</svg>
