<?xml version="1.0" encoding="utf-8"?>
<!-- Generator: Adobe Illustrator 16.0.0, SVG Export Plug-In . SVG Version: 6.00 Build 0)  -->
<!DOCTYPE svg PUBLIC "-//W3C//DTD SVG 1.1//EN" "http://www.w3.org/Graphics/SVG/1.1/DTD/svg11.dtd">
<svg version="1.1" id="XMLID_1_" xmlns="http://www.w3.org/2000/svg" xmlns:xlink="http://www.w3.org/1999/xlink" x="0px" y="0px"
	 width="24px" height="24px" viewBox="0 0 24 24" enable-background="new 0 0 24 24" xml:space="preserve">
<g id="i--play-box--blue">
	<g>
		<path fill="#ffffff" d="M23,0H0.999C0.4453,0,0,0.4453,0,0.998V23c0,0.5537,0.4453,1,0.999,1H23c0.5547,0,1-0.4463,1-1V0.998
			C24,0.4453,23.5547,0,23,0z M11,2l5.9121-0.002L14,6H8L11,2z M7.9102,1.998L5,6H2L1.998,1.998H7.9102z M21.9961,22.002H1.998L2,8
			h20L21.9961,22.002z M22,6h-5l3-4h2V6z M8.8555,19.9629c0.1367,0.0645,0.2891,0.0996,0.4355,0.0996
			c0.2207,0,0.4414-0.0742,0.6172-0.2109l5.4219-4.3154c0.2402-0.1914,0.377-0.4795,0.377-0.7842
			c0-0.3037-0.1367-0.5918-0.377-0.7832l-5.417-4.3145c-0.2979-0.2402-0.71-0.2852-1.0576-0.1182
			c-0.3428,0.167-0.5635,0.5186-0.5635,0.9014v8.625C8.292,19.4453,8.5078,19.7969,8.8555,19.9629z M10.291,12.5088l2.8164,2.2393
			l-2.8164,2.2383V12.5088z"/>
	</g>
</g>
</svg>
