<?xml version="1.0" encoding="utf-8"?>
<!-- Generator: Adobe Illustrator 16.0.0, SVG Export Plug-In . SVG Version: 6.00 Build 0)  -->
<!DOCTYPE svg PUBLIC "-//W3C//DTD SVG 1.1//EN" "http://www.w3.org/Graphics/SVG/1.1/DTD/svg11.dtd">
<svg version="1.1" id="XMLID_1_" xmlns="http://www.w3.org/2000/svg" xmlns:xlink="http://www.w3.org/1999/xlink" x="0px" y="0px"
	 width="9.333px" height="11.3438px" viewBox="0 0 9.333 11.3438" enable-background="new 0 0 9.333 11.3438" xml:space="preserve">
<path id="pinters" fill="#242526" d="M3.8359,7.5029c-0.3154,1.5605-0.6992,3.0586-1.8389,3.8408
	C1.6445,8.9834,2.5137,7.21,2.917,5.3291C2.2295,4.2344,2.999,2.0322,4.4492,2.5742c1.7842,0.668-1.5449,4.0684,0.6904,4.4941
	c2.334,0.4424,3.2861-3.8291,1.8389-5.2188C4.8877-0.1572,0.8916,1.8037,1.3838,4.6768c0.1191,0.7012,0.8867,0.915,0.3066,1.8828
	C0.3516,6.2803-0.0479,5.2822,0.0039,3.9512c0.083-2.1777,2.0693-3.7021,4.0625-3.9131c2.5195-0.2676,4.8848,0.875,5.2119,3.1162
	c0.3672,2.5303-1.1377,5.2705-3.832,5.0732C4.7158,8.1729,4.4082,7.832,3.8359,7.5029z"/>
</svg>
