<?xml version="1.0" encoding="utf-8"?>
<!-- Generator: Adobe Illustrator 16.0.0, SVG Export Plug-In . SVG Version: 6.00 Build 0)  -->
<!DOCTYPE svg PUBLIC "-//W3C//DTD SVG 1.1//EN" "http://www.w3.org/Graphics/SVG/1.1/DTD/svg11.dtd">
<svg version="1.1" id="XMLID_1_" xmlns="http://www.w3.org/2000/svg" xmlns:xlink="http://www.w3.org/1999/xlink" x="0px" y="0px"
	 width="15.9902px" height="11.0078px" viewBox="0 0 15.9902 11.0078" enable-background="new 0 0 15.9902 11.0078"
	 xml:space="preserve">
<path id="marks" fill="#1b8bf9" d="M3.5107,4.0029c1.9297,0,3.4941,1.5679,3.4941,3.5029c0,1.9336-1.5645,3.502-3.4941,3.502
	c-1.9307,0-3.4951-1.5684-3.4951-3.502L0,7.0049C0,3.1362,3.1289,0,6.9893,0v2.0015c-1.334,0-2.5879,0.5205-3.5303,1.4653
	c-0.1816,0.1821-0.3467,0.376-0.4971,0.5791C3.1416,4.0176,3.3232,4.0029,3.5107,4.0029z M12.4961,4.0029
	c1.9297,0,3.4941,1.5679,3.4941,3.5029c0,1.9336-1.5645,3.502-3.4941,3.502c-1.9307,0-3.4951-1.5684-3.4951-3.502l-0.0156-0.501
	C8.9854,3.1362,12.1143,0,15.9746,0v2.0015c-1.333,0-2.5869,0.5205-3.5303,1.4653c-0.1816,0.1821-0.3467,0.376-0.4961,0.5791
	C12.127,4.0176,12.3096,4.0029,12.4961,4.0029z"/>
</svg>
