<?xml version="1.0" encoding="utf-8"?>
<!-- Generator: Adobe Illustrator 16.0.0, SVG Export Plug-In . SVG Version: 6.00 Build 0)  -->
<!DOCTYPE svg PUBLIC "-//W3C//DTD SVG 1.1//EN" "http://www.w3.org/Graphics/SVG/1.1/DTD/svg11.dtd">
<svg version="1.1" id="XMLID_2_" xmlns="http://www.w3.org/2000/svg" xmlns:xlink="http://www.w3.org/1999/xlink" x="0px" y="0px"
	 width="24.002px" height="24px" viewBox="0 0 24.002 24" enable-background="new 0 0 24.002 24" xml:space="preserve">
<path id="i--rocket--blue--outline" fill="#1b8bf9" d="M3.3457,18.7773c-0.8477,0-1.5645,0.5615-1.7979,1.332l-0.8159,2.6895
	c-0.0103,0.0342-0.0156,0.0713-0.0156,0.1094c0,0.207,0.1685,0.376,0.3755,0.376c0.0386,0,0.0752-0.0068,0.1099-0.0166
	l2.6899-0.8154c0.7705-0.2334,1.332-0.9502,1.332-1.7969C5.2236,19.6182,4.3828,18.7773,3.3457,18.7773z M22.877,0
	c-4.0508,0-7.9609,0.1768-11.249,2.3174c-1.7344,1.1299-3.1748,2.71-4.3369,4.4766C4.4805,6.9658,1.8623,8.3896,0.209,10.707
	c-0.2251,0.3164-0.2715,0.7266-0.1235,1.084c0.1479,0.3594,0.4702,0.6162,0.8535,0.6807c1.0122,0.1709,2.1333,0.625,3.2661,1.2949
	C4,14.5156,3.834,15.2432,3.7158,15.9238c-0.0635,0.3613,0.0537,0.7314,0.3135,0.9902l3.0566,3.0557
	c0.2129,0.2129,0.5,0.3291,0.7969,0.3291c0.0645,0,0.127-0.0049,0.1924-0.0166c0.6826-0.1172,1.4092-0.2842,2.1592-0.4883
	c0.6699,1.1328,1.124,2.2549,1.2949,3.2666c0.0645,0.3828,0.3223,0.7051,0.6816,0.8545C12.3496,23.9727,12.4951,24,12.6406,24
	c0.2314,0,0.4609-0.0723,0.6543-0.21c2.3164-1.6523,3.7422-4.2695,3.9121-7.0811c1.7676-1.1631,3.3477-2.6016,4.4766-4.3359
	c2.1396-3.2861,2.3184-7.3584,2.3184-11.248C24.0039,0.5039,23.499,0,22.877,0z M2.4727,10.917
	c0.9932-1.0195,2.2539-1.7314,3.627-2.0605c-0.5186,1.0137-0.957,2.0498-1.3184,3.0713C4.0039,11.499,3.2275,11.1543,2.4727,10.917z
	 M13.085,21.5273c-0.2373-0.7559-0.582-1.5322-1.0117-2.3086c1.0225-0.3623,2.0586-0.7998,3.0723-1.3184
	C14.8164,19.2725,14.1055,20.5352,13.085,21.5273z M19.7959,11.1436c-2.335,3.5869-7.3721,5.9629-11.5381,6.8125l-2.2139-2.2139
	c0.8496-4.166,3.2266-9.2012,6.8125-11.5361c2.4873-1.6191,5.6006-1.9043,8.8867-1.9473
	C21.7021,5.5449,21.415,8.6572,19.7959,11.1436z M16.1152,9.7637c1.0371,0,1.8789-0.8398,1.8789-1.877s-0.8418-1.8779-1.8789-1.8779
	s-1.877,0.8408-1.877,1.8779S15.0781,9.7637,16.1152,9.7637z"/>
</svg>
