<?xml version="1.0" encoding="utf-8"?>
<!-- Generator: Adobe Illustrator 16.0.0, SVG Export Plug-In . SVG Version: 6.00 Build 0)  -->
<!DOCTYPE svg PUBLIC "-//W3C//DTD SVG 1.1//EN" "http://www.w3.org/Graphics/SVG/1.1/DTD/svg11.dtd">
<svg version="1.1" id="XMLID_1_" xmlns="http://www.w3.org/2000/svg" xmlns:xlink="http://www.w3.org/1999/xlink" x="0px" y="0px"
	 width="14.332px" height="14.2861px" viewBox="0 0 14.332 14.2861" enable-background="new 0 0 14.332 14.2861"
	 xml:space="preserve">
<path id="starr" fill="#1b8bf9" d="M11.2788,14.2861c-0.0811,0-0.1621-0.0195-0.2373-0.0615l-3.875-2.127l-3.876,2.127
	c-0.1729,0.0947-0.3809,0.0791-0.5381-0.04s-0.2363-0.3213-0.2031-0.5215l0.7402-4.5068L0.1538,5.9648
	C0.0151,5.8232-0.0347,5.6113,0.0249,5.418C0.0854,5.2256,0.2446,5.085,0.437,5.0547L4.77,4.3975l1.9385-4.0996
	C6.7944,0.1152,6.9712,0,7.1665,0c0.1934,0,0.3711,0.1152,0.457,0.2979L9.562,4.3975l4.333,0.6572
	c0.1924,0.0303,0.3516,0.1699,0.4121,0.3633c0.0596,0.1934,0.0098,0.4053-0.1299,0.5469l-3.1348,3.1914l0.7402,4.5068
	c0.0322,0.2002-0.0459,0.4023-0.2031,0.5215C11.4907,14.252,11.3853,14.2861,11.2788,14.2861z"/>
</svg>
