<?xml version="1.0" encoding="utf-8"?>
<!-- Generator: Adobe Illustrator 16.0.0, SVG Export Plug-In . SVG Version: 6.00 Build 0)  -->
<!DOCTYPE svg PUBLIC "-//W3C//DTD SVG 1.1//EN" "http://www.w3.org/Graphics/SVG/1.1/DTD/svg11.dtd">
<svg version="1.1" id="XMLID_1_" xmlns="http://www.w3.org/2000/svg" xmlns:xlink="http://www.w3.org/1999/xlink" x="0px" y="0px"
	 width="23.9736px" height="24.0078px" viewBox="0 0 23.9736 24.0078" enable-background="new 0 0 23.9736 24.0078"
	 xml:space="preserve">
<path id="i--star--blue--outline" fill="#bcc6d0" d="M23.9146,9.0762c-0.1396-0.3994-0.4854-0.6885-0.9053-0.7559l-6.9004-1.0576
	l-3.0986-6.6123C12.8228,0.2549,12.4185,0,11.9839,0c-0.4385,0-0.8389,0.2559-1.0225,0.6523L7.8628,7.2627L0.9648,8.3203
	C0.5474,8.3809,0.1914,8.6777,0.0581,9.0781c-0.1338,0.4014-0.0337,0.8408,0.2617,1.1465l5.0312,5.165l-1.1914,7.3057
	c-0.0723,0.4297,0.1064,0.8545,0.4678,1.1094c0.3516,0.2402,0.832,0.2656,1.1992,0.0596l6.1572-3.4102l6.1611,3.4131
	c0.1816,0.0938,0.3672,0.1406,0.5518,0.1406c0.2822,0,0.5078-0.1104,0.6494-0.2041c0.3613-0.2549,0.5391-0.6787,0.4678-1.1084
	l-1.1924-7.3057l5.0312-5.165C23.9497,9.9238,24.0493,9.4844,23.9146,9.0762z M16.2837,15.1895l0.9082,5.5625l-4.6631-2.5811
	c-0.1689-0.0928-0.3584-0.1416-0.5498-0.1416s-0.3809,0.0488-0.5498,0.1426L6.7661,20.752l0.9082-5.5635
	c0.0566-0.3535-0.0586-0.7158-0.3047-0.9697l-3.8926-3.9941l5.3262-0.8174c0.3711-0.0557,0.6914-0.2959,0.8555-0.6406l2.3242-4.9639
	l2.3164,4.9688c0.1621,0.3457,0.4805,0.584,0.8564,0.6406l5.3252,0.8125l-3.8916,3.9941
	C16.3394,14.4746,16.2271,14.8281,16.2837,15.1895z"/>
</svg>
