<?xml version="1.0" encoding="utf-8"?>
<!-- Generator: Adobe Illustrator 16.0.0, SVG Export Plug-In . SVG Version: 6.00 Build 0)  -->
<!DOCTYPE svg PUBLIC "-//W3C//DTD SVG 1.1//EN" "http://www.w3.org/Graphics/SVG/1.1/DTD/svg11.dtd">
<svg version="1.1" id="XMLID_2_" xmlns="http://www.w3.org/2000/svg" xmlns:xlink="http://www.w3.org/1999/xlink" x="0px" y="0px"
	 width="23.9917px" height="24.0312px" viewBox="0 0 23.9917 24.0312" enable-background="new 0 0 23.9917 24.0312"
	 xml:space="preserve">
<g id="i--stack--blue--outline">
	<g>
		<path fill="#ffffff" d="M0.5435,7.7529l10.9683,6.6455c0.1523,0.0928,0.3184,0.1377,0.4844,0.1377s0.332-0.0459,0.4844-0.1377
			l10.9688-6.6455c0.3457-0.21,0.5566-0.624,0.541-1.0693c-0.0137-0.4453-0.25-0.8438-0.6074-1.0254L12.4141,0.1016
			c-0.2656-0.1353-0.5693-0.1353-0.8359,0L0.6089,5.6582C0.2515,5.8398,0.0151,6.2383,0.0015,6.6836
			C-0.0122,7.1279,0.1978,7.543,0.5435,7.7529z M11.9961,2.4453l8.6328,4.3721l-8.6328,5.2295L3.3633,6.8174L11.9961,2.4453z
			 M22.4805,10.6309l-10.4844,6.3545L1.5107,10.6309c-0.5024-0.3047-1.1235-0.0879-1.3896,0.4805
			c-0.2666,0.5693-0.0781,1.2754,0.4224,1.5781l10.9683,6.6475c0.1523,0.0918,0.3184,0.1377,0.4844,0.1377
			s0.332-0.0459,0.4844-0.1377l10.9688-6.6475c0.5-0.3027,0.6875-1.0088,0.4219-1.5781
			C23.6045,10.543,22.9824,10.3271,22.4805,10.6309z M22.4805,15.1895L11.9961,21.542L1.5107,15.1895
			c-0.5024-0.3047-1.1235-0.0889-1.3896,0.4795c-0.2666,0.5693-0.0781,1.2754,0.4224,1.5791l10.9683,6.6455
			c0.1523,0.0928,0.3184,0.1377,0.4844,0.1377s0.332-0.0449,0.4844-0.1377l10.9688-6.6455c0.5-0.3037,0.6875-1.0098,0.4219-1.5791
			C23.6035,15.1006,22.9824,14.8848,22.4805,15.1895z"/>
	</g>
</g>
</svg>
