<?xml version="1.0" encoding="utf-8"?>
<!-- Generator: Adobe Illustrator 16.0.0, SVG Export Plug-In . SVG Version: 6.00 Build 0)  -->
<!DOCTYPE svg PUBLIC "-//W3C//DTD SVG 1.1//EN" "http://www.w3.org/Graphics/SVG/1.1/DTD/svg11.dtd">
<svg version="1.1" id="XMLID_2_" xmlns="http://www.w3.org/2000/svg" xmlns:xlink="http://www.w3.org/1999/xlink" x="0px" y="0px"
	 width="24.5px" height="24.5px" viewBox="0 0 24.5 24.5" enable-background="new 0 0 24.5 24.5" xml:space="preserve">
<g id="i--sopeedometer--blue--outline">
	<g>
		<path fill="#1b8bf9" d="M22.9062,6.2266c-0.0137-0.0332-0.0273-0.0664-0.0479-0.1016c-0.0371-0.0645-0.0811-0.123-0.1045-0.1465
			c-1.0391-1.7324-2.5029-3.1953-4.2021-4.21c-0.0547-0.0459-0.1123-0.0898-0.1748-0.126
			c-0.0342-0.0195-0.0684-0.0352-0.1045-0.0469C16.4336,0.5518,14.3516,0,12.25,0c-2.1006,0-4.1836,0.5518-6.0244,1.5938
			C6.1943,1.6074,6.1621,1.6211,6.1221,1.6426C6.0586,1.6797,6.0029,1.7227,5.9805,1.7461c-1.7314,1.0371-3.1953,2.5-4.2109,4.2012
			C1.7227,6.002,1.6777,6.0615,1.6436,6.123C1.623,6.1562,1.6074,6.1924,1.5947,6.2275C0.5518,8.0654,0,10.1484,0,12.25
			C0,19.0049,5.4951,24.5,12.25,24.5S24.5,19.0049,24.5,12.25C24.5,10.1484,23.9482,8.0654,22.9062,6.2266z M21.0605,13.5293h0.7979
			c-0.6338,4.8164-4.7168,8.4141-9.6084,8.4141s-8.9746-3.5977-9.6084-8.4141h0.7988c0.7041,0,1.2783-0.5742,1.2783-1.2793
			s-0.5742-1.2783-1.2783-1.2783H2.6416c0.1094-0.8213,0.3291-1.6309,0.6553-2.4141l0.6836,0.3945
			c0.585,0.3389,1.4062,0.1211,1.7471-0.4678c0.1709-0.2949,0.2158-0.6406,0.1279-0.9697C5.7666,7.1846,5.5547,6.9092,5.2588,6.7383
			L4.5811,6.3467C5.0918,5.6846,5.6836,5.0928,6.3457,4.582l0.3916,0.6777c0.3389,0.5859,1.1523,0.8096,1.7471,0.4678
			C9.0947,5.375,9.3047,4.5918,8.9521,3.9805L8.5576,3.2969c0.7832-0.3262,1.5928-0.5449,2.4141-0.6543v0.7969
			c0,0.7051,0.5732,1.2793,1.2783,1.2793s1.2783-0.5742,1.2783-1.2793V2.6426c0.8213,0.1094,1.6309,0.3281,2.415,0.6543
			l-0.3955,0.6836c-0.3516,0.6113-0.1426,1.3945,0.4668,1.7471c0.584,0.3389,1.4053,0.1221,1.749-0.4678l0.3906-0.6777
			c0.6631,0.5107,1.2549,1.1035,1.7646,1.7646l-0.6777,0.3916c-0.2959,0.1709-0.5078,0.4463-0.5957,0.7764
			c-0.0889,0.3291-0.0439,0.6748,0.127,0.9697c0.3408,0.5889,1.1621,0.8086,1.7471,0.4678l0.6846-0.3945
			c0.3252,0.7842,0.5439,1.5928,0.6543,2.4141h-0.7979c-0.7051,0-1.2783,0.5732-1.2783,1.2783S20.3555,13.5293,21.0605,13.5293z
			 M15.4746,12.7422l-0.0293-0.0898c-0.4326-1.3906-1.5859-3.1895-2.0625-3.8984c-0.2266-0.3359-0.623-0.5352-1.0615-0.5352
			s-0.835,0.1992-1.0615,0.5361C10.79,9.4551,9.6494,11.2324,9.208,12.6191l-0.0273,0.083
			c-0.0312,0.0918-0.0615,0.1826-0.0781,0.2705c-0.0586,0.2451-0.0869,0.4512-0.0869,0.6318c0,1.8232,1.4834,3.3066,3.3057,3.3066
			c1.8232,0,3.3066-1.4834,3.3066-3.3066c0-0.1777-0.0283-0.3848-0.085-0.625C15.5264,12.8975,15.501,12.8193,15.4746,12.7422z
			 M12.4697,14.3389c-0.0957,0.0186-0.2002,0.0205-0.2949,0c-0.3379-0.0693-0.583-0.3691-0.583-0.7139
			c0-0.4023,0.3271-0.7295,0.7295-0.7295s0.7295,0.3271,0.7295,0.7295C13.0508,13.9697,12.8057,14.2695,12.4697,14.3389z"/>
	</g>
</g>
</svg>
