<?xml version="1.0" encoding="utf-8"?>
<!-- Generator: Avocode 2.3.2-ea60620 - http://avocode.com -->
<svg height="10" width="12" xmlns:xlink="http://www.w3.org/1999/xlink" xmlns="http://www.w3.org/2000/svg" viewBox="0 0 12 10">
    <path fill="#ffffff" fill-rule="evenodd" d="M 11.33 1.44 C 10.91 1.63 10.46 1.75 9.99 1.81 C 10.47 1.52 10.84 1.05 11.02 0.51 C 10.57 0.78 10.07 0.97 9.54 1.08 C 9.12 0.62 8.51 0.33 7.84 0.33 C 6.56 0.33 5.52 1.39 5.52 2.69 C 5.52 2.87 5.54 3.05 5.58 3.23 C 3.65 3.13 1.93 2.19 0.79 0.76 C 0.59 1.11 0.47 1.52 0.47 1.95 C 0.47 2.77 0.88 3.49 1.51 3.91 C 1.13 3.9 0.77 3.79 0.45 3.62 C 0.45 3.63 0.45 3.63 0.45 3.64 C 0.45 4.79 1.25 5.74 2.32 5.96 C 2.12 6.01 1.92 6.04 1.71 6.04 C 1.56 6.04 1.41 6.02 1.27 6 C 1.56 6.93 2.42 7.61 3.44 7.63 C 2.64 8.26 1.64 8.64 0.55 8.64 C 0.37 8.64 0.18 8.63 0 8.61 C 1.03 9.28 2.25 9.67 3.56 9.67 C 7.84 9.67 10.18 6.08 10.18 2.96 C 10.18 2.86 10.17 2.76 10.17 2.66 C 10.62 2.33 11.02 1.91 11.33 1.44 C 11.33 1.44 11.33 1.44 11.33 1.44 Z" />
</svg>