<?xml version="1.0" encoding="utf-8"?>
<!-- Generator: Adobe Illustrator 16.0.0, SVG Export Plug-In . SVG Version: 6.00 Build 0)  -->
<!DOCTYPE svg PUBLIC "-//W3C//DTD SVG 1.1//EN" "http://www.w3.org/Graphics/SVG/1.1/DTD/svg11.dtd">
<svg version="1.1" id="XMLID_1_" xmlns="http://www.w3.org/2000/svg" xmlns:xlink="http://www.w3.org/1999/xlink" x="0px" y="0px"
	 width="26.1719px" height="24.0137px" viewBox="0 0 26.1719 24.0137" enable-background="new 0 0 26.1719 24.0137"
	 xml:space="preserve">
<path id="i--tune--blue--outline" fill="#ffffff" d="M23.6567,0c-0.1152,0-0.2324,0.0078-0.3486,0.0244L8.8188,2.0469
	c-0.6094,0.0859-1.168,0.3877-1.5713,0.8525c-0.4033,0.4639-0.626,1.0586-0.626,1.6729v7.4502
	c-0.1807-0.0176-0.3633-0.0273-0.542-0.0293c-0.0225-0.001-0.0459-0.001-0.0674-0.001c-3.293,0-5.9897,2.6777-6.0122,5.9688
	c-0.0054,0.8154,0.1494,1.6064,0.4609,2.3545c0.3003,0.7197,0.7324,1.3672,1.2847,1.9229c0.5522,0.5566,1.1968,0.9922,1.915,1.2979
	c0.7461,0.3174,1.5371,0.4775,2.3516,0.4775c0.8047,0,1.5859-0.1562,2.3242-0.4668c0.7109-0.2979,1.3506-0.7246,1.9004-1.2695
	c0.5508-0.542,0.9844-1.1768,1.292-1.8848c0.3096-0.7148,0.4756-1.4736,0.4932-2.2549c0-0.0273,0.001-0.0547,0.001-0.082V9.3643
	l8.749-1.2207v1.6992c-0.1836-0.0176-0.373-0.0283-0.5625-0.0293c-0.0156-0.001-0.0312-0.001-0.0488-0.001
	c-0.8086,0-1.5957,0.1602-2.3379,0.4746c-0.7148,0.3027-1.3574,0.7363-1.9082,1.2871c-0.5527,0.5518-0.9863,1.1943-1.29,1.9082
	c-0.3154,0.7422-0.4746,1.5303-0.4746,2.3408c0,0.8115,0.1592,1.5986,0.4736,2.3408c0.3008,0.7148,0.7344,1.3574,1.2871,1.9092
	c0.5508,0.5518,1.1934,0.9844,1.9102,1.2871c0.7422,0.3145,1.5303,0.4736,2.3398,0.4736h0.0439
	c0.8076-0.0059,1.5947-0.1748,2.3369-0.501c0.708-0.3105,1.3438-0.752,1.8906-1.3086c0.5425-0.5557,0.9702-1.1982,1.269-1.9111
	c0.3145-0.7422,0.4707-1.5264,0.4707-2.3291V2.5166C26.1719,1.1289,25.0449,0,23.6567,0z M22.6929,11.6064V6.7344
	c0-0.3838-0.3115-0.6953-0.6943-0.6953c-0.0312,0-0.0645,0.002-0.0977,0.0068L10.7017,7.6094
	c-0.3418,0.0479-0.5996,0.3438-0.5996,0.6885v9.7031v0.0527c-0.0283,2.2266-1.8633,4.0391-4.0898,4.0391
	c-1.0986,0-2.1289-0.4297-2.9033-1.208c-0.7734-0.7793-1.1953-1.8125-1.188-2.9111c0.0156-2.2383,1.8511-4.0605,4.0903-4.0605
	h0.0479c0.5879,0.0078,1.1533,0.1357,1.6816,0.3828c0.0762,0.0352,0.1562,0.0537,0.2383,0.0537
	c0.3105,0,0.5635-0.2529,0.5635-0.5635V4.5723c0-0.3115,0.2334-0.5791,0.542-0.623l14.4893-2.0225
	c0.0273-0.0039,0.0547-0.0059,0.083-0.0059c0.3281,0,0.5957,0.2676,0.5957,0.5957v13.2676c0,2.2598-1.8223,4.1123-4.0605,4.1289
	h-0.0312c-2.2539,0-4.0898-1.835-4.0898-4.0898s1.8359-4.0898,4.0898-4.0898h0.0332c0.5918,0.0049,1.1621,0.1338,1.6963,0.3828
	c0.0771,0.0361,0.1572,0.0537,0.2393,0.0537C22.4399,12.1699,22.6929,11.917,22.6929,11.6064z"/>
</svg>
