<?xml version="1.0" encoding="utf-8"?>
<!-- Generator: Adobe Illustrator 16.0.0, SVG Export Plug-In . SVG Version: 6.00 Build 0)  -->
<!DOCTYPE svg PUBLIC "-//W3C//DTD SVG 1.1//EN" "http://www.w3.org/Graphics/SVG/1.1/DTD/svg11.dtd">
<svg version="1.1" id="XMLID_2_" xmlns="http://www.w3.org/2000/svg" xmlns:xlink="http://www.w3.org/1999/xlink" x="0px" y="0px"
	 width="26.3008px" height="26.3003px" viewBox="0 0 26.3008 26.3003" enable-background="new 0 0 26.3008 26.3003"
	 xml:space="preserve">
<g id="i--zip--circle--blue--outline">
	<g>
		<path fill="#ffffff" d="M13.1504,0C5.8994,0,0,5.8994,0,13.1499c0,7.2515,5.8994,13.1504,13.1504,13.1504
			s13.1504-5.8989,13.1504-13.1504C26.3008,5.8994,20.4014,0,13.1504,0z M13.1504,24C7.167,24,2.3008,19.1328,2.3008,13.1499
			S7.167,2.3003,13.1504,2.3003C19.1328,2.3003,24,7.167,24,13.1499S19.1328,24,13.1504,24z M17.6963,11.4443h-2.8828V6.1191
			c0-0.3354-0.21-0.6289-0.5244-0.7324c-0.3066-0.0981-0.6621,0.022-0.8477,0.2925l-5.4561,7.9692
			c-0.1592,0.2344-0.1787,0.5371-0.0518,0.7891c0.1289,0.2588,0.3857,0.4189,0.6709,0.4189h2.8828v5.3252
			c0,0.334,0.21,0.6289,0.5234,0.7324c0.0732,0.0244,0.1514,0.0361,0.2305,0.0361c0.2461,0,0.4775-0.123,0.6182-0.3281
			l5.4561-7.9697c0.1592-0.2334,0.1787-0.5361,0.0518-0.79C18.2383,11.6045,17.9805,11.4443,17.6963,11.4443z M12.9961,17.7354
			v-3.6475c0-0.4238-0.3389-0.7686-0.7549-0.7686h-2.1904l3.2539-4.7539v3.647c0,0.4243,0.3389,0.769,0.7549,0.769H16.25
			L12.9961,17.7354z"/>
	</g>
</g>
</svg>
