<?xml version="1.0" encoding="utf-8"?>
<!-- Generator: Adobe Illustrator 16.0.0, SVG Export Plug-In . SVG Version: 6.00 Build 0)  -->
<!DOCTYPE svg PUBLIC "-//W3C//DTD SVG 1.1//EN" "http://www.w3.org/Graphics/SVG/1.1/DTD/svg11.dtd">
<svg version="1.1" id="XMLID_1_" xmlns="http://www.w3.org/2000/svg" xmlns:xlink="http://www.w3.org/1999/xlink" x="0px" y="0px"
	 width="16.6006px" height="24.5996px" viewBox="0 0 16.6006 24.5996" enable-background="new 0 0 16.6006 24.5996"
	 xml:space="preserve">
<path id="i--zip--blue--outline" fill="#ffffff" d="M16.4883,10.3193C16.3105,9.9678,15.9609,9.75,15.5723,9.75h-4.791V1.0488
	c0-0.458-0.2852-0.8594-0.7129-1C9.6445-0.0908,9.166,0.0771,8.9141,0.4463l-8.7285,12.751
	c-0.2168,0.3203-0.2461,0.7354-0.0723,1.082c0.1777,0.3516,0.5273,0.5703,0.9141,0.5703h4.791v8.7002
	c0,0.457,0.2871,0.8594,0.7148,1c0.1016,0.0332,0.207,0.0498,0.3125,0.0498c0.3359,0,0.6504-0.167,0.8418-0.4473l8.7266-12.75
	C16.6328,11.0811,16.6621,10.667,16.4883,10.3193z M6.8457,12.75H3l5.7285-8.3682v6.418c0,0.5791,0.4609,1.0498,1.0273,1.0498
	h3.8438L7.873,20.2168v-6.417C7.873,13.2207,7.4121,12.75,6.8457,12.75z"/>
</svg>
