<svg height="17" width="13" xmlns="http://www.w3.org/2000/svg" viewBox="0 0 13 17"><path fill="#fff" fill-rule="evenodd" d="M10.88 9.47c.44 2.21 2.14 2.77 2.14 2.77s-.91 2.46-1.93 3.32c-1.01.86-1.31 1.09-2.19.84-.88-.25-1.43-.71-2.33-.57-.9.13-1.64.68-2.39.66-.74-.01-1.79-.68-2.82-2.46C.33 12.26-.21 9.97.04 8.17c.25-1.79 1.62-3.3 2.92-3.63 1.89-.48 2.62.57 3.61.57 0 0 .34 0 1.03-.28.69-.29 1.37-.67 2.75-.36 1.38.3 2.19 1.49 2.19 1.49s-2.1 1.29-1.66 3.51zM6.53 4.16s-.15-1.51.76-2.46C8.21.74 9.58.5 9.58.5s.33 1.54-.65 2.53c-.97 1-2.4 1.13-2.4 1.13z"/></svg>