<svg xmlns="http://www.w3.org/2000/svg" width="16" height="19" viewBox="0 0 16 19"><path fill="#FFF" d="M4.148 9.797c0 .246.1.469.26.63l2.963 2.969a.887.887 0 0 0 1.257 0l2.964-2.97a.89.89 0 0 0-1.258-1.259l-1.445 1.448V.891a.89.89 0 1 0-1.778 0v9.724L5.665 9.168a.89.89 0 0 0-1.517.63zm10.666-5.64h-3.258a.89.89 0 0 0 0 1.78h2.667V17.22H1.777V5.937h2.667a.89.89 0 0 0 0-1.78H1.186C.53 4.156 0 4.688 0 5.343v12.469C0 18.467.531 19 1.185 19h13.63c.654 0 1.185-.533 1.185-1.188V5.345c0-.655-.531-1.188-1.185-1.188z"/></svg>