<svg xmlns="http://www.w3.org/2000/svg" width="20" height="18.47" viewBox="0 0 20 18.4678"><path fill="#FFF" d="M15.84 7.339a6.18 6.18 0 0 1-.78 1.85C16.776 9.611 18 10.708 18 12c0 1.656-2.015 3-4.5 3-2.037 0-3.755-.902-4.31-2.14-.546.091-1.112.14-1.69.14-.121 0-.24-.012-.36-.016.352 1.35 1.403 2.505 2.86 3.225V18c0 .55.248.627.556.168l.944-1.412a8.32 8.32 0 0 0 2 .244c3.59 0 6.5-2.24 6.5-5 0-2.125-1.727-3.938-4.16-4.661zM15 6c0-3.313-3.357-6-7.5-6S0 2.687 0 6c0 2.302 1.622 4.299 4 5.305V14c0 .55.27.643.6.2l1.717-2.282c.386.049.78.082 1.183.082 4.143 0 7.5-2.687 7.5-6zM2 6c0-2.209 2.463-4 5.5-4S13 3.791 13 6s-2.463 4-5.5 4S2 8.209 2 6z"/></svg>