<svg xmlns="http://www.w3.org/2000/svg" width="23.99" height="23.98" viewBox="0 0 23.9902 23.9785"><path fill="#fff" d="M23.839 10.17a1.028 1.028 0 0 0-.672-.814l-1.89-.67c-.112-.318-.239-.625-.38-.923l.86-1.809c.163-.34.125-.744-.1-1.049a11.974 11.974 0 0 0-2.574-2.572 1.025 1.025 0 0 0-1.05-.1l-1.808.859a9.986 9.986 0 0 0-.923-.38L14.629.824a1.026 1.026 0 0 0-.813-.67c-1.328-.205-2.311-.205-3.642 0a1.026 1.026 0 0 0-.813.67l-.671 1.89a9.774 9.774 0 0 0-.923.379l-1.81-.859a1.025 1.025 0 0 0-1.05.1c-.983.72-1.85 1.586-2.574 2.572a1.026 1.026 0 0 0-.1 1.05l.86 1.808c-.14.297-.268.606-.38.922l-1.89.673a1.023 1.023 0 0 0-.672.813C.048 10.848 0 11.425 0 11.989s.048 1.143.151 1.82c.057.374.316.686.672.813l1.89.672c.112.316.24.625.38.922l-.86 1.809c-.163.341-.125.745.099 1.048.725.986 1.59 1.852 2.575 2.574a1.03 1.03 0 0 0 1.05.1l1.809-.86c.298.141.606.267.923.38l.672 1.888c.126.356.439.614.813.671.665.103 1.26.152 1.821.152.56 0 1.156-.05 1.822-.152.374-.057.685-.315.812-.67l.672-1.89c.317-.112.625-.238.923-.378l1.81.86c.341.161.745.122 1.05-.1a11.983 11.983 0 0 0 2.573-2.575c.225-.303.263-.707.101-1.049l-.86-1.808a9.87 9.87 0 0 0 .38-.922l1.89-.672c.356-.127.614-.438.671-.813.104-.677.151-1.255.151-1.82s-.048-1.141-.151-1.818zm-1.954 2.726l-1.774.63c-.31.11-.548.362-.641.678a7.753 7.753 0 0 1-.62 1.506c-.158.29-.167.635-.026.932l.804 1.691a9.92 9.92 0 0 1-1.285 1.284l-1.692-.803a1.026 1.026 0 0 0-.932.026c-.466.253-.973.46-1.509.62-.315.093-.566.33-.677.64l-.63 1.773a8.415 8.415 0 0 1-1.815 0l-.631-1.772a1.028 1.028 0 0 0-.677-.641 7.819 7.819 0 0 1-1.509-.62 1.024 1.024 0 0 0-.932-.025l-1.692.803a9.99 9.99 0 0 1-1.285-1.285l.804-1.691a1.025 1.025 0 0 0-.026-.932 7.749 7.749 0 0 1-.62-1.507 1.03 1.03 0 0 0-.641-.677l-1.774-.63a8.784 8.784 0 0 1-.049-.907c0-.287.016-.584.05-.906l1.774-.63c.308-.11.547-.362.64-.677a7.768 7.768 0 0 1 .62-1.507c.158-.289.167-.636.026-.932l-.804-1.691A9.983 9.983 0 0 1 5.647 4.36l1.693.805c.296.143.643.13.932-.025.465-.254.972-.461 1.508-.62.315-.093.567-.332.677-.641l.63-1.773a8.289 8.289 0 0 1 1.815 0l.631 1.773c.11.31.363.548.677.64.536.16 1.044.367 1.509.62.289.158.635.169.933.026l1.69-.805a9.99 9.99 0 0 1 1.286 1.286l-.804 1.69c-.141.298-.131.644.026.932.254.467.462.973.62 1.507.094.316.332.568.642.677l1.773.631c.033.322.05.62.05.906 0 .288-.017.585-.05.907zm-9.89-5.905a4.763 4.763 0 0 0-4.76 4.757c0 2.623 2.135 4.757 4.76 4.757s4.76-2.134 4.76-4.757a4.763 4.763 0 0 0-4.76-4.757zm0 7.46a2.706 2.706 0 0 1-2.703-2.703 2.706 2.706 0 0 1 2.703-2.702 2.705 2.705 0 0 1 2.703 2.702 2.706 2.706 0 0 1-2.703 2.702z"/></svg>