<svg xmlns="http://www.w3.org/2000/svg" width="24.01" height="24.01" viewBox="0 0 24.0127 24.0122"><path fill="#bcc6d0" d="M12.007 0C5.376 0 0 5.375 0 12.006s5.376 12.006 12.007 12.006 12.006-5.375 12.006-12.006S18.638 0 12.007 0zm0 22.137c-5.595 0-10.131-4.535-10.131-10.13 0-5.596 4.536-10.131 10.13-10.131s10.132 4.535 10.132 10.13c0 5.596-4.536 10.131-10.131 10.131zm5.249-12.279a2.552 2.552 0 0 0-.883-.626 2.956 2.956 0 0 0-1.182-.227c-.348 0-.672.054-.973.162-.3.11-.578.252-.834.432a4.525 4.525 0 0 0-.722.626c-.224.238-.44.482-.646.732-.22-.26-.44-.507-.664-.74a4.812 4.812 0 0 0-.721-.618 3.583 3.583 0 0 0-.836-.432c-.3-.107-.63-.162-.99-.162-.438 0-.83.079-1.181.236-.349.157-.644.369-.884.635-.24.265-.423.58-.548.943a3.547 3.547 0 0 0-.188 1.178c0 .425.065.82.196 1.189.13.37.322.685.573.951.251.268.552.479.902.635.348.158.747.236 1.195.236.36 0 .685-.053.975-.156.289-.102.557-.236.802-.405s.477-.362.696-.585.442-.455.673-.692c.206.237.424.47.655.692.228.222.47.416.727.585s.534.304.83.405c.294.103.61.156.949.156.434 0 .833-.078 1.185-.236.356-.156.654-.375.894-.648.241-.28.427-.6.557-.971.133-.366.197-.766.197-1.188 0-.423-.064-.812-.197-1.17a2.815 2.815 0 0 0-.557-.937zM10.59 12.51c-.163.16-.34.3-.525.424a3.107 3.107 0 0 1-.588.309 1.646 1.646 0 0 1-.623.12c-.404 0-.721-.122-.95-.372-.23-.25-.345-.569-.345-.96 0-.358.112-.68.335-.968.224-.288.528-.432.91-.432.208 0 .415.047.624.139.207.092.406.209.596.35.192.14.374.296.55.463.175.168.327.323.458.464a6.83 6.83 0 0 1-.442.463zm5.552.465c-.217.259-.53.389-.933.389-.23 0-.444-.037-.647-.113a2.92 2.92 0 0 1-.58-.3 4.293 4.293 0 0 1-.528-.422 7.872 7.872 0 0 1-.456-.482c.13-.141.278-.295.442-.464.164-.167.335-.323.516-.463.178-.141.371-.258.573-.35.203-.091.413-.138.63-.138.405 0 .724.135.958.407.234.271.353.595.353.976 0 .38-.108.7-.328.96z"/></svg>