<svg xmlns="http://www.w3.org/2000/svg" width="24.2" height="24.03" viewBox="0 0 24.2046 24.0254"><path fill="#fff" d="M21.85 0c-.269 0-.534.046-.79.137-.877.311-2.71.854-5.128.995-1.225.072-2.427.15-3.651.33-1.448.211-2.694.534-3.809.987-2.555 1.038-4.556 2.976-5.788 5.605a11.438 11.438 0 0 0-1.036 3.818c-.123 1.412.037 2.766.475 4.025l.455 1.489a79.85 79.85 0 0 0-2.101 2.67 2.359 2.359 0 0 0 1.208 3.682l.64.189a2.339 2.339 0 0 0 1.806-.193c.353-.194.653-.477.866-.819.263-.424.845-1.331 1.468-2.132.075.041.138.075.18.095.563.26 1.162.465 1.78.607.72.167 1.471.252 2.234.252.508 0 1.026-.038 1.538-.113a11.386 11.386 0 0 0 3.306-1.018 12.308 12.308 0 0 0 2.844-1.896c.153-.136.304-.278.448-.424.711-.715 1.32-1.537 1.86-2.513.434-.78.813-1.637 1.196-2.696.544-1.507 1-3.108 1.393-4.894.325-1.48.607-3.093.862-4.93l.08-.588A2.356 2.356 0 0 0 21.85 0zm.613 2.44c-.025.191-.05.383-.078.575-.443 3.2-1.067 6.427-2.167 9.472-1.533 4.245-5.22 7.758-9.98 7.501-.985-.053-1.966-.271-2.862-.686a23.054 23.054 0 0 1-.843-.49.618.618 0 0 0-.776.113c-.888.972-1.807 2.386-2.233 3.071a.62.62 0 0 1-.704.267l-.64-.19a.621.621 0 0 1-.318-.97c1.47-1.946 2.82-3.592 4.235-5.094.285-.282.596-.578.933-.881a24.118 24.118 0 0 1 3.603-2.69c1.544-.937 3.139-1.64 4.74-2.089a.868.868 0 1 0-.47-1.672c-1.752.492-3.491 1.257-5.17 2.275a25.88 25.88 0 0 0-3.863 2.884 27.571 27.571 0 0 0-1.841 1.815c-.001.001-.277-.646-.291-.688-1.357-4.147 1.134-8.93 4.988-10.73 2.268-1.06 4.847-1.223 7.308-1.367 2.561-.15 4.524-.708 5.607-1.093a.62.62 0 0 1 .822.666z"/></svg>