<svg xmlns="http://www.w3.org/2000/svg" width="20" height="25"><path d="M10.509 25.73c-.513 0-.999-.162-1.406-.469A21.831 21.831 0 0 1 .718 12.418a.725.725 0 0 1-.016-.104 10.138 10.138 0 0 1-.207-2.038C.495 4.759 4.983.27 10.499.27c5.517 0 10.006 4.489 10.006 10.006 0 .732-.079 1.458-.234 2.158a.685.685 0 0 1-.016.101 21.865 21.865 0 0 1-8.207 12.615l-.309.227a.818.818 0 0 1-.069.045 2.35 2.35 0 0 1-1.161.308zm4.273-15.455a4.287 4.287 0 0 0-4.283-4.282 4.287 4.287 0 0 0-4.281 4.282 4.287 4.287 0 0 0 4.281 4.282 4.287 4.287 0 0 0 4.283-4.282z" fill="#1b8bf9"/></svg>