<svg xmlns="http://www.w3.org/2000/svg" width="9.33" height="11.34" viewBox="0 0 9.333 11.3438"><path fill="#242526" d="M3.836 7.503c-.315 1.56-.7 3.059-1.839 3.84-.353-2.36.517-4.133.92-6.014-.688-1.095.082-3.297 1.532-2.755 1.784.668-1.545 4.069.69 4.494 2.335.443 3.287-3.829 1.84-5.218C4.888-.157.892 1.804 1.384 4.677c.119.701.887.915.306 1.883C.352 6.28-.048 5.282.004 3.95.087 1.773 2.074.25 4.066.038c2.52-.267 4.885.875 5.212 3.116.367 2.53-1.137 5.27-3.832 5.074-.73-.055-1.038-.396-1.61-.725z"/></svg>