<svg xmlns="http://www.w3.org/2000/svg" width="24" height="24" viewBox="0 0 24.002 24"><path fill="#fff" d="M3.346 18.777a1.88 1.88 0 0 0-1.798 1.332L.732 22.8a.376.376 0 0 0 .47.469l2.69-.816a1.879 1.879 0 0 0-.546-3.675zM22.877 0c-4.05 0-7.96.177-11.249 2.317-1.734 1.13-3.175 2.71-4.337 4.477A9.41 9.41 0 0 0 .21 10.707a1.127 1.127 0 0 0 .73 1.765c1.012.17 2.133.625 3.266 1.295a23.421 23.421 0 0 0-.49 2.157c-.063.361.055.731.314.99l3.057 3.056a1.126 1.126 0 0 0 .99.312c.682-.117 1.408-.284 2.158-.488.67 1.133 1.124 2.255 1.295 3.267a1.13 1.13 0 0 0 1.112.939c.231 0 .46-.072.654-.21a9.4 9.4 0 0 0 3.912-7.081c1.768-1.163 3.348-2.602 4.477-4.336 2.14-3.286 2.318-7.358 2.318-11.248A1.123 1.123 0 0 0 22.877 0zM2.473 10.917A7.509 7.509 0 0 1 6.1 8.857a25.264 25.264 0 0 0-1.319 3.07 12.747 12.747 0 0 0-2.308-1.01zm10.612 10.61a12.627 12.627 0 0 0-1.012-2.308c1.023-.363 2.059-.8 3.073-1.319a7.501 7.501 0 0 1-2.061 3.627zm6.71-10.383c-2.334 3.586-7.371 5.962-11.537 6.812l-2.214-2.214c.85-4.166 3.226-9.201 6.812-11.536 2.488-1.619 5.601-1.904 8.887-1.947-.04 3.286-.328 6.398-1.947 8.885zm-3.68-1.38a1.878 1.878 0 1 0 .002-3.756 1.878 1.878 0 0 0-.002 3.756z"/></svg>