<svg xmlns="http://www.w3.org/2000/svg" width="23.99" height="24.03" viewBox="0 0 23.9917 24.0312"><path fill="#1b8bf9" d="M.543 7.753l10.969 6.645a.926.926 0 0 0 .969 0l10.968-6.645c.346-.21.557-.624.541-1.07-.013-.445-.25-.843-.607-1.025L12.414.102a.911.911 0 0 0-.836 0L.608 5.658c-.356.182-.593.58-.607 1.026-.013.444.197.859.542 1.069zm11.453-5.308l8.633 4.372-8.633 5.23-8.633-5.23 8.633-4.372zm10.484 8.186l-10.484 6.354-10.485-6.354c-.503-.305-1.124-.088-1.39.48-.267.57-.078 1.276.422 1.578l10.969 6.648c.152.092.318.138.484.138s.332-.046.485-.138l10.968-6.647c.5-.303.688-1.01.422-1.579-.266-.568-.889-.784-1.39-.48zm0 4.559l-10.484 6.352-10.485-6.353c-.503-.304-1.124-.088-1.39.48-.267.57-.078 1.275.422 1.58l10.969 6.645a.926.926 0 0 0 .969 0l10.968-6.646c.5-.304.688-1.01.422-1.579-.267-.568-.889-.784-1.39-.48z"/></svg>