<svg xmlns="http://www.w3.org/2000/svg" width="23.974" height="24.008" viewBox="0 0 23.9736 24.0078"><path fill="#bcc6d0" d="M23.915 9.076a1.15 1.15 0 0 0-.906-.756l-6.9-1.057L13.01.65A1.143 1.143 0 0 0 11.984 0a1.13 1.13 0 0 0-1.023.652l-3.098 6.61L.965 8.32a1.13 1.13 0 1 0-.645 1.904l5.03 5.166-1.19 7.305c-.073.43.106.855.467 1.11.352.24.832.265 1.2.06l6.157-3.41 6.16 3.412a1.2 1.2 0 0 0 .553.14 1.125 1.125 0 0 0 1.117-1.312l-1.192-7.305 5.03-5.165c.298-.301.397-.74.263-1.149zm-7.631 6.114l.908 5.562-4.663-2.581a1.143 1.143 0 0 0-1.1 0l-4.663 2.581.908-5.564a1.14 1.14 0 0 0-.304-.97l-3.893-3.993 5.326-.818c.371-.055.692-.296.856-.64l2.324-4.964 2.316 4.969c.162.345.48.584.857.64l5.325.813-3.892 3.994c-.25.256-.362.61-.305.97z"/></svg>