<svg width="2145" height="512" viewBox="0 0 2145 512" xmlns="http://www.w3.org/2000/svg"><title>AMD</title><g fill="none" fill-rule="evenodd"><g fill="#fff"><path d="M503.658 477.479H384.724L348.34 389.72H150.123l-33.148 87.759H0L178.71 34.248h128.029l196.919 443.23zm-259.305-337.32l-64.987 172.215h136.479l-71.492-172.215zM935.69 34.248h96.18v443.23H921.378V200.625L801.8 339.687h-16.89L665.34 200.624v276.85H554.847V34.248h96.181l142.32 164.419 142.341-164.42zM1311.832 34.248c161.814 0 244.986 100.719 244.986 222.248 0 127.375-80.575 220.983-257.34 220.983h-183.272V34.248h195.626zm-85.142 361.994h72.125c111.131 0 144.28-75.403 144.28-140.403 0-76.044-40.95-140.366-145.58-140.366h-70.827v280.77h.002z"/><g><path d="M2005.185 139.342h-228.548L1637.32 0h507.183v507.202l-139.318-139.326V139.342zM1776.474 368.04V167.263l-143.435 143.43v200.776h200.75l143.426-143.43h-200.741z"/></g></g></g></svg>